<?xml version="1.0" standalone="no"?>
<!DOCTYPE svg PUBLIC "-//W3C//DTD SVG 1.1//EN" "http://www.w3.org/Graphics/SVG/1.1/DTD/svg11.dtd" >
<svg xmlns="http://www.w3.org/2000/svg">
<metadata>Generated by IcoMoon</metadata>
<defs>
<font id="grapefruit" horiz-adv-x="1024">
<font-face units-per-em="1024" ascent="960" descent="-64" />
<missing-glyph horiz-adv-x="1024" />
<glyph unicode="&#x20;" d="" horiz-adv-x="512" />
<glyph unicode="&#xe600;" d="M742.997 657.664c-33.28 33.323-87.381 33.323-120.661 0l-110.336-110.336-110.336 110.336c-33.28 33.323-87.381 33.323-120.661 0-33.323-33.323-33.323-87.339 0-120.661l110.293-110.336-110.293-110.336c-33.323-33.323-33.323-87.339 0-120.661 16.64-16.683 38.485-25.003 60.331-25.003s43.691 8.32 60.331 25.003l110.336 110.336 110.336-110.336c16.64-16.683 38.485-25.003 60.331-25.003s43.691 8.32 60.331 25.003c33.323 33.323 33.323 87.339 0 120.661l-110.293 110.336 110.293 110.336c33.323 33.323 33.323 87.339 0 120.661z" />
<glyph unicode="&#xe601;" d="M724.139 671.958c-41.259 22.955-93.227 8.021-116.053-33.152l-158.421-285.099-90.667 90.667c-33.323 33.323-87.339 33.323-120.661 0s-33.323-87.339 0-120.661l170.667-170.667c16.128-16.171 37.888-25.045 60.331-25.045 3.925 0 7.893 0.256 11.819 0.853 26.496 3.712 49.749 19.627 62.763 43.051l213.333 384c22.912 41.216 8.064 93.141-33.109 116.053z" />
<glyph unicode="&#xe602;" d="M768 512h-170.667v170.667c0 47.104-38.229 85.333-85.333 85.333s-85.333-38.229-85.333-85.333l3.029-170.667h-173.696c-47.104 0-85.333-38.229-85.333-85.333s38.229-85.333 85.333-85.333l173.696 3.029-3.029-173.696c0-47.104 38.229-85.333 85.333-85.333s85.333 38.229 85.333 85.333v173.696l170.667-3.029c47.104 0 85.333 38.229 85.333 85.333s-38.229 85.333-85.333 85.333z" />
<glyph unicode="&#xe603;" d="M768 469.334h-512c-47.104 0-85.333-38.229-85.333-85.333s38.229-85.333 85.333-85.333h512c47.104 0 85.333 38.229 85.333 85.333s-38.229 85.333-85.333 85.333z" />
<glyph unicode="&#xe604;" d="M366.336 700.331c-33.323-33.323-33.323-87.339 0-120.661l152.96-153.003-152.96-153.003c-33.323-33.323-33.323-87.339 0-120.661 16.64-16.683 38.485-25.003 60.331-25.003s43.691 8.32 60.331 25.003l273.707 273.664-273.707 273.664c-33.28 33.323-87.381 33.323-120.661 0z" />
<glyph unicode="&#xe605;" d="M614.997 700.331c-33.28 33.323-87.381 33.323-120.661 0l-273.707-273.664 273.707-273.664c16.64-16.683 38.485-25.003 60.331-25.003s43.691 8.32 60.331 25.003c33.323 33.323 33.323 87.339 0 120.661l-152.96 153.003 152.96 153.003c33.323 33.323 33.323 87.339 0 120.661z" />
<glyph unicode="&#xe606;" d="M451.669 657.664c-33.323-33.237-33.323-87.339 0-120.661l67.669-67.669h-309.077c-47.104 0-85.333-38.187-85.333-85.333 0-47.104 38.229-85.333 85.333-85.333h309.077l-67.669-67.669c-33.323-33.237-33.323-87.339 0-120.661 16.683-16.683 38.485-25.003 60.331-25.003s43.648 8.32 60.331 25.003l273.664 273.664-273.664 273.664c-33.323 33.323-87.339 33.323-120.661 0z" />
<glyph unicode="&#xe607;" d="M768 469.334h-309.077l67.669 67.669c33.323 33.323 33.323 87.424 0 120.661-33.323 33.323-87.339 33.323-120.661 0l-273.664-273.664 273.664-273.664c16.64-16.683 38.485-25.003 60.331-25.003s43.648 8.32 60.331 25.003c33.323 33.323 33.323 87.424 0 120.661l-67.669 67.669h309.077c47.104 0 85.333 38.229 85.333 85.333 0 47.147-38.229 85.333-85.333 85.333z" />
<glyph unicode="&#xe608;" d="M320 128c0-58.91-47.756-106.667-106.667-106.667s-106.667 47.756-106.667 106.667c0 58.91 47.756 106.667 106.667 106.667 58.91 0 106.667-47.756 106.667-106.667zM320 426.667c0-58.91-47.756-106.667-106.667-106.667s-106.667 47.756-106.667 106.667c0 58.91 47.756 106.667 106.667 106.667 58.91 0 106.667-47.756 106.667-106.667zM320 725.334c0-58.91-47.756-106.667-106.667-106.667s-106.667 47.756-106.667 106.667c0 58.91 47.756 106.667 106.667 106.667 58.91 0 106.667-47.756 106.667-106.667zM618.667 128c0-58.91-47.756-106.667-106.667-106.667s-106.667 47.756-106.667 106.667c0 58.91 47.756 106.667 106.667 106.667 58.91 0 106.667-47.756 106.667-106.667zM618.667 426.667c0-58.91-47.756-106.667-106.667-106.667s-106.667 47.756-106.667 106.667c0 58.91 47.756 106.667 106.667 106.667 58.91 0 106.667-47.756 106.667-106.667zM618.667 725.334c0-58.91-47.756-106.667-106.667-106.667s-106.667 47.756-106.667 106.667c0 58.91 47.756 106.667 106.667 106.667 58.91 0 106.667-47.756 106.667-106.667zM917.333 128c0-58.91-47.756-106.667-106.667-106.667s-106.667 47.756-106.667 106.667c0 58.91 47.756 106.667 106.667 106.667 58.91 0 106.667-47.756 106.667-106.667zM917.333 426.667c0-58.91-47.756-106.667-106.667-106.667s-106.667 47.756-106.667 106.667c0 58.91 47.756 106.667 106.667 106.667 58.91 0 106.667-47.756 106.667-106.667zM917.333 725.334c0-58.91-47.756-106.667-106.667-106.667s-106.667 47.756-106.667 106.667c0 58.91 47.756 106.667 106.667 106.667 58.91 0 106.667-47.756 106.667-106.667z" />
<glyph unicode="&#xe609;" d="M810.667 213.334h-597.333c-47.061 0-85.333-38.272-85.333-85.333s38.272-85.333 85.333-85.333h597.333c47.061 0 85.333 38.272 85.333 85.333s-38.272 85.333-85.333 85.333zM810.667 512h-597.333c-47.061 0-85.333-38.272-85.333-85.333s38.272-85.333 85.333-85.333h597.333c47.061 0 85.333 38.272 85.333 85.333s-38.272 85.333-85.333 85.333zM810.667 810.667h-597.333c-47.061 0-85.333-38.272-85.333-85.333s38.272-85.333 85.333-85.333h597.333c47.061 0 85.333 38.272 85.333 85.333s-38.272 85.333-85.333 85.333z" />
<glyph unicode="&#xe60a;" d="M512 496c0 103.083-83.584 186.667-186.667 186.667s-186.667-83.584-186.667-186.667c0-48.085 6.784-118.784 74.667-186.667s298.667-224 298.667-224 230.784 156.117 298.667 224 74.667 138.581 74.667 186.667c0 103.083-83.584 186.667-186.667 186.667s-186.667-83.584-186.667-186.667z" />
<glyph unicode="&#xe60b;" d="M512 768c-188.544 0-341.333-152.832-341.333-341.333s152.789-341.333 341.333-341.333 341.333 152.832 341.333 341.333-152.789 341.333-341.333 341.333zM670.165 328.832c16.683-16.683 16.683-43.648 0-60.331-8.32-8.32-19.243-12.501-30.165-12.501s-21.845 4.181-30.165 12.501l-97.835 97.835-97.835-97.835c-8.32-8.32-19.243-12.501-30.165-12.501s-21.845 4.181-30.165 12.501c-16.683 16.683-16.683 43.648 0 60.331l97.835 97.835-97.835 97.835c-16.683 16.683-16.683 43.648 0 60.331s43.648 16.683 60.331 0l97.835-97.835 97.835 97.835c16.683 16.683 43.648 16.683 60.331 0s16.683-43.648 0-60.331l-97.835-97.835 97.835-97.835z" />
<glyph unicode="&#xe60c;" d="M512 810.667c-211.755 0-384-172.288-384-384s172.245-384 384-384 384 172.288 384 384-172.245 384-384 384zM512 128c-164.651 0-298.667 133.973-298.667 298.667s134.016 298.667 298.667 298.667 298.667-133.973 298.667-298.667-134.016-298.667-298.667-298.667zM542.165 426.667l112.896 112.896c8.277 8.277 8.277 21.845 0 30.165-8.32 8.277-21.888 8.277-30.165 0l-112.896-112.896-112.896 112.939c-8.32 8.277-21.888 8.277-30.165 0-8.32-8.32-8.32-21.888 0-30.165l112.896-112.939-112.896-112.896c-8.32-8.32-8.32-21.888 0-30.165 4.139-4.181 9.6-6.272 15.061-6.272s10.923 2.091 15.104 6.229l112.896 112.939 112.896-112.896c4.181-4.181 9.643-6.272 15.104-6.272s10.923 2.091 15.104 6.229c8.277 8.277 8.277 21.845 0 30.165l-112.939 112.939z" />
<glyph unicode="&#xe60d;" d="M813.397 507.35l50.304 101.845c3.157 6.357 2.901 13.952-0.64 20.096-3.541 6.187-9.984 10.155-17.109 10.624l-113.323 7.339-7.339 113.323c-0.469 7.125-4.437 13.525-10.624 17.109-6.187 3.584-13.739 3.84-20.139 0.64l-101.76-50.347-63.019 94.507c-7.936 11.861-27.563 11.861-35.499 0l-63.019-94.507-101.76 50.347c-6.443 3.2-13.952 2.944-20.139-0.64-6.187-3.541-10.155-9.984-10.624-17.109l-7.296-113.323-113.365-7.296c-7.125-0.469-13.568-4.437-17.109-10.624-3.584-6.187-3.797-13.739-0.64-20.139l50.304-101.803-94.464-63.019c-5.931-3.968-9.515-10.624-9.515-17.749s3.541-13.781 9.515-17.749l94.507-63.019-50.347-101.803c-3.157-6.4-2.901-13.952 0.64-20.139 3.541-6.144 9.984-10.155 17.109-10.581l113.323-7.296 7.296-113.365c0.469-7.125 4.437-13.525 10.624-17.109 6.144-3.541 13.653-3.755 20.139-0.64l101.803 50.304 63.019-94.464c3.968-5.931 10.624-9.515 17.749-9.515s13.781 3.541 17.749 9.515l63.019 94.464 101.803-50.304c6.4-3.115 13.952-2.901 20.139 0.64s10.155 9.984 10.624 17.109l7.296 113.323 113.323 7.339c7.125 0.469 13.525 4.437 17.109 10.624 3.541 6.187 3.797 13.739 0.64 20.139l-50.304 101.76 94.464 63.061c5.931 3.968 9.515 10.624 9.515 17.749s-3.541 13.781-9.515 17.749l-94.464 62.933z" />
<glyph unicode="&#xe60e;" d="M919.723 462.123l-78.891 52.565 41.984 85.035c6.315 12.8 5.845 27.904-1.28 40.235-7.168 12.373-19.968 20.352-34.219 21.248l-94.635 6.101-6.144 94.635c-0.853 14.251-8.875 27.093-21.205 34.219-12.373 7.125-27.52 7.68-40.235 1.28l-84.949-42.027-52.608 78.891c-15.829 23.765-55.168 23.765-70.997 0l-52.651-78.848-84.992 41.984c-12.757 6.4-27.904 5.845-40.235-1.28-12.373-7.125-20.352-19.968-21.248-34.219l-6.101-94.592-94.635-6.101c-14.251-0.939-27.093-8.917-34.219-21.248s-7.637-27.477-1.28-40.235l41.984-85.035-78.891-52.608c-11.861-7.936-18.987-21.248-18.987-35.499s7.125-27.563 18.987-35.499l78.933-52.608-42.027-84.992c-6.315-12.8-5.845-27.904 1.28-40.235s19.968-20.352 34.219-21.248l94.635-6.101 6.101-94.635c0.896-14.208 8.875-27.051 21.248-34.176s27.392-7.637 40.235-1.323l84.992 42.027 52.608-78.891c7.936-11.861 21.248-18.987 35.499-18.987s27.563 7.125 35.499 18.987l52.608 78.891 84.949-42.027c12.757-6.315 27.861-5.803 40.235 1.28 12.373 7.125 20.352 19.968 21.248 34.219l6.101 94.592 94.677 6.144c14.251 0.896 27.093 8.875 34.219 21.248s7.637 27.477 1.28 40.235l-41.984 84.992 78.891 52.608c11.861 7.936 18.987 21.248 18.987 35.499s-7.125 27.605-18.987 35.499zM747.691 334.251l30.293-61.227-68.267-4.437c-21.419-1.408-38.443-18.432-39.851-39.851l-4.395-68.181-61.227 30.251c-19.2 9.557-42.496 3.285-54.4-14.592l-37.845-56.747-37.931 56.875c-8.149 12.245-21.675 18.987-35.541 18.987-6.357 0-12.8-1.408-18.859-4.437l-61.269-30.251-4.395 68.181c-1.365 21.376-18.432 38.443-39.851 39.851l-68.096 4.395 30.293 61.227c9.515 19.243 3.243 42.539-14.592 54.4l-56.875 37.931 56.832 37.888c17.835 11.904 24.064 35.2 14.592 54.4l-30.293 61.269 68.267 4.395c21.419 1.408 38.443 18.432 39.851 39.851l4.395 68.181 61.227-30.251c19.115-9.429 42.496-3.243 54.4 14.592l37.845 56.789 37.931-56.875c11.904-17.835 35.243-24.021 54.4-14.592l61.269 30.293 4.437-68.224c1.408-21.376 18.475-38.4 39.851-39.808l68.181-4.395-30.251-61.312c-9.515-19.243-3.243-42.496 14.592-54.4l56.832-37.888-56.875-37.931c-17.92-11.819-24.149-35.115-14.677-54.357z" />
<glyph unicode="&#xe60f;" d="M399.445 547.926c0 0-134.827-14.933-224.768-24.917-8.107-0.981-15.275-6.4-17.963-14.635s0-16.811 5.973-22.229c66.816-60.971 167.211-152.277 167.211-152.277-0.085 0-27.563-132.821-45.824-221.44-1.536-8.021 1.365-16.512 8.363-21.589 6.955-5.077 15.915-5.163 22.955-1.195 78.677 44.715 196.523 111.957 196.523 111.957s117.888-67.243 196.437-112c7.168-3.925 16.128-3.84 23.083 1.237 6.997 5.077 9.899 13.568 8.32 21.547-18.261 88.661-45.696 221.483-45.696 221.483s100.395 91.307 167.211 152.149c5.973 5.589 8.619 14.165 5.973 22.357s-9.813 13.611-17.92 14.549c-89.941 10.069-224.811 25.003-224.811 25.003s-55.893 123.648-93.141 206.080c-3.499 7.381-10.837 12.544-19.456 12.544s-16-5.205-19.328-12.544c-37.291-82.432-93.141-206.080-93.141-206.080z" />
<glyph unicode="&#xe610;" d="M725.333 512h-42.667v85.333c0 94.080-76.544 170.667-170.667 170.667s-170.667-76.587-170.667-170.667v-85.333h-42.667c-47.061 0-85.333-38.229-85.333-85.333v-298.667c0-47.104 38.272-85.333 85.333-85.333h426.667c47.061 0 85.333 38.229 85.333 85.333v298.667c0 47.104-38.272 85.333-85.333 85.333zM512 157.91c-30.677 0-55.467 24.747-55.467 55.424s24.789 55.509 55.467 55.509 55.467-24.832 55.467-55.509-24.789-55.424-55.467-55.424zM597.333 469.334h-170.667v128c0 47.104 38.272 85.333 85.333 85.333s85.333-38.229 85.333-85.333v-128z" />
<glyph unicode="&#xe611;" d="M768 768c-94.123 0-170.667-76.587-170.667-170.667v-128h-170.667v42.667h-128c-47.061 0-85.333-38.229-85.333-85.333v-298.667c0-47.104 38.272-85.333 85.333-85.333h426.667c47.061 0 85.333 38.229 85.333 85.333v298.667c0 47.104-38.272 85.333-85.333 85.333h-42.667v85.333c0 47.104 38.272 85.333 85.333 85.333s85.333-38.229 85.333-85.333v-128c0-23.595 19.115-42.667 42.667-42.667s42.667 19.072 42.667 42.667v128c0 94.080-76.544 170.667-170.667 170.667zM512 157.91c-30.677 0-55.467 24.747-55.467 55.424s24.789 55.509 55.467 55.509 55.467-24.832 55.467-55.509-24.789-55.424-55.467-55.424z" />
<glyph unicode="&#xe612;" d="M903.296 281.686l-252.245 420.437c-33.109 55.168-83.755 86.741-139.051 86.741s-105.941-31.573-139.051-86.656l-252.245-420.523c-33.536-55.851-37.205-115.413-10.027-163.413 27.136-48.043 80.128-75.605 145.323-75.605h512c65.195 0 118.187 27.563 145.323 75.563 27.179 48 23.509 107.563-10.027 163.456zM512 189.91c-36.437 0-66.133 29.653-66.133 66.091 0 36.48 29.653 66.176 66.133 66.176s66.133-29.696 66.133-66.176c0-36.437-29.696-66.091-66.133-66.091zM581.675 506.667c-0.469-1.323-59.776-147.968-59.776-147.968-1.621-4.011-5.547-6.656-9.856-6.656s-8.235 2.645-9.856 6.656l-59.349 146.688c-3.84 9.941-5.504 18.901-5.504 27.947 0 41.173 33.493 74.667 74.667 74.667s74.667-33.493 74.667-74.667c0-9.045-1.664-18.005-4.992-26.667z" />
<glyph unicode="&#xe613;" d="M384 341.334c58.923 0 112.256 23.893 150.869 62.507 38.571 38.571 62.464 91.904 62.464 150.827s-23.893 112.256-62.464 150.827c-38.613 38.613-91.947 62.507-150.869 62.507s-112.256-23.893-150.869-62.507c-38.571-38.571-62.464-91.904-62.464-150.827s23.893-112.256 62.464-150.827c38.613-38.613 91.947-62.507 150.869-62.507zM384 42.667c150.101 0 256 42.667 256 85.333 0 85.333-100.437 170.667-256 170.667-160 0-256-85.333-256-170.667 0-42.667 96-85.333 256-85.333zM896 426.667h-85.333v85.333c0 23.595-19.072 42.667-42.667 42.667s-42.667-19.072-42.667-42.667v-85.333h-85.333c-23.595 0-42.667-19.072-42.667-42.667s19.072-42.667 42.667-42.667h85.333v-85.333c0-23.595 19.072-42.667 42.667-42.667s42.667 19.072 42.667 42.667v85.333h85.333c23.595 0 42.667 19.072 42.667 42.667s-19.072 42.667-42.667 42.667z" />
<glyph unicode="&#xe614;" d="M512 341.334c58.923 0 112.256 23.893 150.869 62.507 38.571 38.571 62.464 91.904 62.464 150.827s-23.893 112.256-62.464 150.827c-38.613 38.613-91.947 62.507-150.869 62.507s-112.256-23.893-150.869-62.507c-38.571-38.571-62.464-91.904-62.464-150.827s23.893-112.256 62.464-150.827c38.613-38.613 91.947-62.507 150.869-62.507zM853.333 298.667c29.44 0 56.107 11.904 75.435 31.189s31.232 45.952 31.232 75.477c0 29.44-11.904 56.107-31.232 75.435-19.328 19.328-45.995 31.232-75.435 31.232-29.483 0-56.149-11.904-75.477-31.232-19.285-19.328-31.189-45.995-31.189-75.435 0-29.483 11.904-56.149 31.189-75.477s45.995-31.189 75.477-31.189zM853.333 273.494c-56.789 0-99.499-17.323-124.459-41.301-47.573 39.125-122.795 66.475-216.875 66.475-96.683 0-170.453-27.648-217.259-66.731-25.429 24.107-68.608 41.557-124.075 41.557-93.355 0-149.333-46.507-149.333-93.099 0-23.253 55.979-46.592 149.333-46.592 25.771 0 48.896 2.176 69.248 5.675-0.427-3.883-1.707-7.68-1.707-11.52 0-42.667 102.656-85.333 273.792-85.333 160.512 0 273.792 42.667 273.792 85.333 0 3.627-0.469 7.253-0.853 10.88 19.755-3.115 42.453-5.035 68.395-5.035 87.509 0 149.333 23.339 149.333 46.592 0 46.592-58.581 93.099-149.333 93.099zM170.667 298.667c29.44 0 56.107 11.904 75.435 31.232s31.232 45.995 31.232 75.435c0 29.397-11.904 56.064-31.232 75.435-19.328 19.285-45.995 31.232-75.435 31.232-29.483 0-56.149-11.947-75.477-31.232-19.285-19.371-31.189-46.037-31.189-75.435 0-29.44 11.904-56.107 31.189-75.435 19.328-19.328 45.995-31.232 75.477-31.232z" />
<glyph unicode="&#xe615;" d="M719.147 44.118c-9.557 0-18.901 2.133-27.563 6.229-1.493 0.597-2.944 1.323-4.437 2.176l-175.232 99.968-175.232-100.011c-1.493-0.853-2.987-1.579-4.523-2.261-20.821-9.728-46.293-7.424-64.896 6.101-20.011 14.507-29.909 39.808-25.003 64.384l40.832 198.059c-15.957 14.507-41.045 37.333-68.352 62.165l-80.853 73.6c-1.152 1.067-2.347 2.261-3.328 3.499-16 16.896-21.717 41.387-14.507 63.659 7.381 22.357 26.453 38.912 49.493 43.051 1.451 0.341 2.859 0.597 4.352 0.768l200.576 22.229 83.029 183.893c0.725 1.621 1.536 3.2 2.56 4.693 11.179 20.181 32.597 32.896 55.851 32.896 23.168 0 44.544-12.715 55.851-32.853 0.896-1.536 1.749-3.115 2.56-4.779l83.115-183.979 200.576-22.229c1.451-0.128 2.901-0.384 4.437-0.725 22.997-4.267 42.069-20.736 49.408-43.179 7.253-22.229 1.493-46.848-14.507-63.744-1.024-1.109-2.176-2.304-3.328-3.328l-149.248-135.851 40.832-197.632c4.821-25.045-5.035-50.261-25.173-64.811-10.752-7.765-23.723-11.989-37.291-11.989zM371.456 324.182c-1.664-7.765-19.883-95.829-36.053-174.165l155.435 88.619c13.099 7.467 29.184 7.467 42.24 0l155.435-88.533-36.224 175.104c-3.029 14.763 1.92 30.080 13.141 40.192l132.267 120.405-177.835 19.669c-14.976 1.664-27.904 11.093-34.176 24.917l-73.728 163.029-73.643-163.029c-6.229-13.739-19.2-23.168-34.176-24.917l-177.835-19.669 132.267-120.405c11.605-10.496 16.384-26.325 12.885-41.216z" />
<glyph unicode="&#xe616;" d="M512 85.334c-8.32 0-16.683 2.432-23.936 7.339-9.6 6.443-235.008 159.147-304.896 229.163-78.123 78.123-87.168 161.152-87.168 216.832 0 126.464 102.869 229.333 229.333 229.333 76.885 0 144.981-38.016 186.667-96.256 41.685 58.24 109.781 96.256 186.667 96.256 126.464 0 229.333-102.869 229.333-229.333 0-55.68-9.045-138.709-87.168-216.832-70.016-70.016-295.381-222.72-304.896-229.163-7.253-4.907-15.616-7.339-23.936-7.339zM325.333 682.667c-79.403 0-144-64.597-144-144 0-46.635 7.381-101.717 62.165-156.501 51.712-51.712 208.341-161.067 268.501-202.496 60.16 41.429 216.789 150.784 268.501 202.496 54.784 54.784 62.165 109.867 62.165 156.501 0 79.403-64.597 144-144 144s-144-64.597-144-144c0-23.552-19.072-42.667-42.667-42.667s-42.667 19.115-42.667 42.667c0 79.403-64.597 144-144 144z" />
<glyph unicode="&#xe617;" d="M590.464 190.934c-0.256-0.085-23.851-7.936-44.331-7.936-11.307 0-15.872 2.347-17.323 3.371-7.168 4.992-20.48 14.336 2.304 59.733l42.667 85.077c25.301 50.517 29.056 99.371 10.453 137.6-15.189 31.275-44.331 52.736-81.92 60.416-13.525 2.773-27.264 4.139-40.875 4.139-78.891 0-132.011-46.080-134.229-48.043-7.637-6.741-9.429-17.92-4.352-26.709 5.12-8.789 15.659-12.8 25.387-9.472 0.213 0.085 23.851 7.979 44.331 7.979 11.221 0 15.744-2.347 17.152-3.328 7.211-5.035 20.565-14.507-2.176-59.819l-42.667-85.12c-25.344-50.56-29.056-99.413-10.453-137.6 15.189-31.275 44.288-52.736 81.963-60.416 13.397-2.688 27.136-4.139 40.704-4.139 78.933 0 132.096 46.080 134.315 48.043 7.637 6.699 9.429 17.92 4.352 26.709-5.12 8.747-15.744 12.672-25.301 9.515zM661.333 682.624c0-58.91-47.756-106.667-106.667-106.667s-106.667 47.756-106.667 106.667c0 58.91 47.756 106.667 106.667 106.667 58.91 0 106.667-47.756 106.667-106.667z" />
<glyph unicode="&#xe618;" d="M896 341.334h-256c-23.595 0-42.667 19.072-42.667 42.667s19.072 42.667 42.667 42.667h256c23.595 0 42.667-19.072 42.667-42.667s-19.072-42.667-42.667-42.667zM597.333 554.667c0-58.923-23.893-112.256-62.464-150.827-38.613-38.613-91.947-62.507-150.869-62.507s-112.256 23.893-150.869 62.507c-38.571 38.571-62.464 91.904-62.464 150.827s23.893 112.256 62.464 150.827c38.613 38.613 91.947 62.507 150.869 62.507s112.256-23.893 150.869-62.507c38.571-38.571 62.464-91.904 62.464-150.827zM384 298.667c-160 0-256-85.333-256-170.667 0-42.667 96-85.333 256-85.333 150.101 0 256 42.667 256 85.333s-100.437 170.667-256 170.667z" />
<glyph unicode="&#xe619;" d="M779.819 668.971c-18.347 18.347-48.043 18.347-66.389 0l-73.429-73.472-13.141 13.141c-49.835 49.835-137.216 49.835-187.051 0l-178.005-178.005c-24.917-24.917-38.656-58.155-38.656-93.525s13.739-68.608 38.656-93.525l13.141-13.141-73.472-73.472c-18.347-18.347-18.347-48.043 0-66.389 9.173-9.173 21.163-13.739 33.195-13.739s24.021 4.565 33.195 13.739l73.472 73.472 13.141-13.141c24.917-24.917 58.112-38.656 93.525-38.656s68.608 13.739 93.525 38.656l178.005 178.005c24.917 24.917 38.656 58.112 38.656 93.525s-13.739 68.608-38.656 93.525l-13.141 13.141 73.472 73.472c18.304 18.347 18.304 48.043-0.043 66.389zM653.141 395.307l-178.005-178.005c-7.168-7.168-17.152-10.795-27.136-10.795s-19.968 3.584-27.136 10.795l-13.141 13.141 30.805 30.805c18.347 18.347 18.347 48.043 0 66.389-9.173 9.173-21.163 13.739-33.195 13.739s-24.021-4.565-33.195-13.739l-30.805-30.805-13.141 13.141c-7.168 7.168-11.136 16.853-11.136 27.136s3.968 19.968 11.136 27.136l178.005 178.005c7.168 7.168 16.811 11.136 27.136 11.136s19.968-3.968 27.136-11.136l13.141-13.141-30.805-30.805c-18.347-18.347-18.347-48.043 0-66.389 9.173-9.173 21.163-13.739 33.195-13.739s24.021 4.565 33.195 13.739l30.805 30.805 13.141-13.141c7.168-7.168 11.136-16.853 11.136-27.136s-3.968-19.968-11.136-27.136z" />
<glyph unicode="&#xe61a;" d="M469.333 575.958c0-58.91-47.756-106.667-106.667-106.667-58.91 0-106.667 47.756-106.667 106.667 0 58.91 47.756 106.667 106.667 106.667 58.91 0 106.667-47.756 106.667-106.667zM682.667 512c-85.333 0-128-128-192-128s-63.957 42.667-149.333 42.667c-85.333 0-128.043-170.667-128.043-170.667h597.376c0 0-42.667 256-128 256zM853.333 810.667h-682.667c-47.061 0-85.333-38.272-85.333-85.333v-512c0-47.061 38.272-85.333 85.333-85.333h682.667c47.061 0 85.333 38.272 85.333 85.333v512c0 47.061-38.272 85.333-85.333 85.333zM853.333 213.334h-682.667v512h682.667v-512z" />
<glyph unicode="&#xe61b;" d="M961.067 633.643c-6.827 4.224-14.592 6.357-22.4 6.357-6.528 0-13.056-1.493-19.072-4.48l-108.928-54.485v16.299c0 70.571-57.429 128-128 128h-469.333c-70.571 0-128-57.429-128-128v-341.333c0-70.571 57.429-128 128-128h469.333c70.571 0 128 57.429 128 128v16.299l108.928-54.443c6.016-3.029 12.544-4.523 19.072-4.523 7.808 0 15.573 2.133 22.4 6.357 12.587 7.808 20.267 21.504 20.267 36.309v341.333c0 14.805-7.68 28.501-20.267 36.309zM298.667 362.667c-35.371 0-64 28.629-64 64s28.629 64 64 64 64-28.629 64-64-28.629-64-64-64z" />
<glyph unicode="&#xe61c;" d="M725.333 554.667c-4.907 0-9.856-0.213-14.976-0.64-35.2 101.419-130.645 171.307-241.024 171.307-141.184 0-256-114.816-256-256 0-1.792 0-3.584 0.043-5.376-73.557-18.987-128.043-85.888-128.043-165.291 0-94.123 76.544-170.667 170.667-170.667h213.333v195.669l-55.168-55.168c-8.32-8.32-19.243-12.501-30.165-12.501s-21.845 4.181-30.165 12.501c-16.683 16.683-16.683 43.648 0 60.331l127.957 127.957c3.968 3.968 8.661 7.083 13.909 9.259 10.411 4.309 22.187 4.309 32.597 0 5.248-2.176 9.941-5.291 13.909-9.259l127.957-127.957c16.683-16.683 16.683-43.648 0-60.331-8.32-8.32-19.243-12.501-30.165-12.501s-21.845 4.181-30.165 12.501l-55.168 55.168v-195.669h170.667c117.632 0 213.333 95.701 213.333 213.333s-95.701 213.333-213.333 213.333z" />
<glyph unicode="&#xe61d;" d="M713.771 756.438c-16.597 16.683-43.563 16.768-60.331 0.171-4.437-4.437-7.509-9.685-9.6-15.147-35.499-74.069-74.581-115.84-123.904-140.501-55.339-27.307-118.869-46.293-221.269-46.293-5.547 0-11.093-1.067-16.299-3.243-10.453-4.352-18.731-12.672-23.083-23.083-4.309-10.411-4.309-22.187 0-32.597 2.176-5.248 5.291-9.984 9.259-13.909l138.368-138.368-193.579-258.133 258.133 193.579 138.325-138.325c3.925-4.011 8.661-7.083 13.909-9.259 5.205-2.176 10.752-3.328 16.299-3.328s11.093 1.152 16.299 3.328c10.453 4.352 18.773 12.587 23.083 23.083 2.176 5.163 3.285 10.752 3.285 16.256 0 102.4 18.944 165.931 46.208 220.416 24.619 49.323 66.389 88.405 140.501 123.904 5.504 2.091 10.709 5.163 15.104 9.6 16.597 16.768 16.512 43.733-0.171 60.331l-170.539 171.52z" />
<glyph unicode="&#xe61e;" d="M725.333 554.667c0 58.923-23.893 112.256-62.464 150.827-38.613 38.613-91.947 62.507-150.869 62.507s-112.256-23.893-150.869-62.507c-38.571-38.571-62.464-91.904-62.464-150.827s23.893-112.256 62.464-150.827c38.613-38.613 91.947-62.507 150.869-62.507s112.256 23.893 150.869 62.507c38.571 38.571 62.464 91.904 62.464 150.827zM256 128c0-42.667 96-85.333 256-85.333 150.101 0 256 42.667 256 85.333 0 85.333-100.437 170.667-256 170.667-160 0-256-85.333-256-170.667z" />
<glyph unicode="&#xe61f;" d="M768 682.667h-256c0 47.104-38.229 85.333-85.333 85.333h-170.667c-70.571 0-128-57.429-128-128v-426.667c0-70.571 57.429-128 128-128h512c70.571 0 128 57.429 128 128v341.333c0 70.571-57.429 128-128 128zM256 682.667h170.667c0-47.104 38.229-85.333 85.333-85.333h256c23.552 0 42.667-19.115 42.667-42.667h-597.333v85.333c0 23.552 19.115 42.667 42.667 42.667zM768 170.667h-512c-23.552 0-42.667 19.115-42.667 42.667v298.667h597.333v-298.667c0-23.552-19.115-42.667-42.667-42.667z" />
<glyph unicode="&#xe620;" d="M341.333 469.334c0-23.564-19.103-42.667-42.667-42.667-23.564 0-42.667 19.103-42.667 42.667 0 23.564 19.103 42.667 42.667 42.667 23.564 0 42.667-19.103 42.667-42.667zM920.96 631.979c-11.179 8.021-25.557 10.283-38.443 5.845l-72.832-24.235c-8.021 63.019-61.909 111.787-127.019 111.787h-469.333c-70.571 0-128-57.472-128-128v-256c0-70.528 57.429-128 128-128h128v-47.403l0.341-3.84c2.816-31.488 16.256-60.715 37.845-82.261 23.979-23.979 55.936-37.205 89.771-37.205s65.792 13.227 89.771 37.12c24.491 24.619 38.315 57.429 38.229 90.155v43.392h85.333c65.024 0 118.997 48.853 127.061 111.787l72.832-24.235c12.928-4.437 27.307-2.176 38.4 5.888 11.179 8.021 17.707 20.907 17.707 34.645v256c0.043 13.568-6.528 26.496-17.664 34.56zM512 169.686c0.043-10.581-5.077-21.333-13.184-29.397-8.149-8.064-18.816-12.203-29.525-12.203-10.667 0-21.376 4.139-29.44 12.203-8.107 8.064-12.16 18.816-13.184 29.483v86.229h85.333v-86.315zM725.333 341.334c0-23.552-19.115-42.667-42.667-42.667h-469.333c-23.552 0-42.667 19.115-42.667 42.667v256c0 23.552 19.115 42.667 42.667 42.667h469.333c23.552 0 42.667-19.115 42.667-42.667v-256zM853.333 400.598c0 0-80.853 25.813-85.333 25.813v85.845c4.48 0 85.333 25.813 85.333 25.813v-137.472z" />
<glyph unicode="&#xe621;" d="M910.037 631.168c0 51.712-20.139 100.352-56.704 136.832s-85.163 56.704-136.832 56.704c-51.157 0-99.285-19.755-135.68-55.637-1.152-1.067-339.925-339.797-339.925-339.797-15.915-15.915-30.592-38.827-41.259-64.597-8.32-20.181-84.437-250.155-99.669-296.064-5.077-15.275-1.067-32.171 10.325-43.563 8.064-8.064 18.987-12.501 30.165-12.501 4.48 0 9.003 0.768 13.397 2.176 45.909 15.147 275.84 91.349 296.021 99.669 25.728 10.581 48.64 25.259 64.64 41.259l92.032 91.989c1.067-0.043 2.133-0.427 3.243-0.427 27.307 0 54.613 10.411 75.477 31.232l192 192c29.696 29.653 37.845 72.491 25.088 109.739 4.565 16.469 7.68 33.408 7.68 50.987zM403.84 188.331c-17.323-6.101-48.853-16.768-86.955-29.483l-72.704 72.704c12.843 38.144 23.509 69.717 29.483 86.955l130.176-130.176zM229.035 186.326l42.624-42.624c-21.035-6.997-42.667-14.208-63.915-21.291 7.083 21.248 14.293 42.923 21.291 63.915zM557.483 319.147l-103.253-103.253c-2.603-2.603-6.443-5.077-10.027-7.68l-150.613 150.571c2.603 3.584 5.12 7.509 7.68 9.984l304.256 304.256 116.523-116.523-157.44-157.44c-21.888-21.845-23.424-54.997-7.125-79.915zM816.896 530.731l-192-192c-4.181-4.224-9.643-6.229-15.104-6.229s-10.923 2.091-15.104 6.229c-8.32 8.277-8.32 21.845 0 30.165l192 192c8.277 8.277 21.845 8.277 30.165 0 8.363-8.32 8.405-21.803 0.043-30.165zM821.461 605.995c-22.144 7.168-47.275 2.645-64.896-14.933l-4.352-4.352-116.523 116.523 3.328 3.328c41.984 41.813 113.152 41.856 153.941 0.981 20.437-20.437 31.701-47.616 31.701-76.501 0.043-8.491-1.28-16.811-3.2-25.045z" />
<glyph unicode="&#xe622;" d="M768 426.667c0 70.699-28.672 134.699-74.965 181.035-46.336 46.293-110.336 74.965-181.035 74.965-70.656 0-134.656-28.672-180.992-74.965-46.336-46.336-75.008-110.336-75.008-181.035 0-70.656 28.672-134.656 75.008-180.992s110.336-75.008 180.992-75.008c70.699 0 134.699 28.672 181.035 75.008 46.293 46.336 74.965 110.336 74.965 180.992z" />
<glyph unicode="&#xe623;" d="M443.563 152.192c112.683 109.824 281.771 274.475 281.771 274.475s-169.088 164.651-281.771 274.475c-15.488 14.891-36.395 24.192-59.563 24.192-47.104 0-85.333-38.229-85.333-85.333v-426.667c0-47.104 38.229-85.333 85.333-85.333 23.168 0 44.075 9.301 59.563 24.192z" />
<glyph unicode="&#xe624;" d="M422.918 382.854h-14.65v-8.635h70.409v8.571h-16.031c-4.935 0-5.754 2.949-5.754 6.545l0.065 111.666c0 9.802-3.274 43.864-41.877 43.864-38.662 0-49.435-30.448-55.689-39.627l-1.291 0.034-0.121 33.697c0 3.925 0.668 5.863-7.437 3.268-8.172-2.629-32.069-1.871-45.146-1.871v-5.833h18.553c3.93 0 5.165-0.586 5.165-5.471v-140.714c0-4.912-1.232-5.493-5.165-5.493h-14.639v-8.635h70.375v8.571h-16.538c-4.89 0-5.213 0.668-5.213 5.246v88.718c0 19.002 16.527 56.957 48.591 56.957 24.245 0 21.714-32.086 21.714-32.086l-0.143-111.964c0-4.893-1.243-6.806-5.179-6.806v0zM24.309 600.208c0 4.256-1.145 6.082-6.051 6.082h-18.006v7.317h98.206c5.597 0 64.181 0.311 64.181-52.387 0-52.715-50.748-57.773-59.914-60.074v-0.993c0 0 20.634-4.085 33.065-16.85 15.711-16.148 18.662-25.544 18.662-54.987 0-29.491 2.284-46.504 18.996-46.504 16.676 0 21.599 9.508 26.832 14.053l4.584-6.534c-9.819-11.794-25.861-17.66-35.36-17.66-9.513 0-23.58 2.281-38.312 18.3-14.72 16.070-12.512 46.411-12.512 68.050 0 23.213-21.198 40.786-37.582 40.786h-18.656c-2.929 0-4.736-1.161-4.736-4.775v-105.935c0-4.59 0.334-5.246 5.252-5.246h18.816v-8.588h-81.85v8.52h19.232c3.916 0 5.154 0.581 5.154 5.476v211.948zM91.596 507.572c17.021 0 38.626 7.822 38.626 49.402 0 41.572-21.274 49.214-34.367 49.214h-33.489c-2.929 0-4.736-1.111-4.736-4.727v-89.11c0-3.597 1.807-4.727 4.736-4.727l29.23-0.050zM904.489 387.904c0-4.584 0.339-5.224 5.246-5.224h19.593v-8.593h-80.127v8.641h21.299c3.936 0 5.193 0.575 5.193 5.488v207.777c0 4.567-2.127 6.385-6.396 6.385h-22.752v6.523c32.83 0 44.2 1.442 57.944 5.218v-226.214zM1282.286 526.301c-0.833-6.921 1.79-21.341 15.422-21.341 15.085 0 16.269 13.435 16.362 14.737 0.306 4.929 0 25.858-23.602 25.858-19.599 0-34.353-22.901-42.551-38.592h-1.557v34.199c0 0.92-0.3 2.272-2.376 1.697-14.788-3.024-43.942-3.302-55.714-3.302v-6.688c6.399 0.121 22.848-1.002 22.848-1.002 4.256 0 6.36-1.79 6.36-6.374l-0.017-137.281c0-4.912-1.218-5.488-5.126-5.488h-19.223v-8.641h81.496v8.593h-23.055c-4.929 0-5.257 0.642-5.257 5.224v88.737c0 23.591 17.905 47.741 29.365 52.193 3.627 1.232 7.045 1.554 6.627-2.531v0zM1016.156 400.063c-0.39-0.626-1.133-1.38-1.969-2.519-11.157-15.551-31.419-24.245-48.493-24.245-12.428 0-43.148 11.141-43.148 43.224 0 45.16 62.826 58.259 86.378 58.259 5.263 0 5.263 3.268 5.263 7.869v37.983c0 6.57 1.313 22.261-26.862 22.261-28.17 0-39.296-13.766-41.914-16.378-2.618-2.629-6.531-5.88 0.679-8.537 7.179-2.584 9.814-8.489 9.814-15.037 0-6.54-4.567-11.761-11.129-11.761-9.003 0-16.154 5.978-16.154 15.935 0 34.681 45.611 42.304 65.934 42.304 20.286 0 46.445-6.523 46.445-33.382v-108.679c0 0-1.288-16.362 11.146-16.362 12.451 0 16.061 12.748 20.303 24.562h5.235c-2.775-14.903-16.998-41.6-35.994-41.6-18.976 0-23.591 18.976-23.591 22.264 0 1.1-0.039 2.744-0.191 3.86l-1.751-0.022zM982.097 387.707c22.29 0 32.089 22.921 32.089 32.726v41.911c0 0 1.93 5.897-7.861 5.897-36.668 0-58.912-18.317-58.912-44.52 0-16.364 12.392-36.014 34.684-36.014v0zM477.439 429.602h5.718c2.637-11.141 20.373-53.739 56.053-53.739 35.694 0 38.96 33.778 38.96 39.347 0 5.566 0.645 24.231-38.645 29.46-39.282 5.252-62.523 22.27-62.523 51.402 0 29.124 21.271 52.392 52.075 52.392 24.89 0 35.043-17.055 35.043-17.055h1.591l7.552 12.108h3.849v-46.787h-5.193c-2.261 10.481-13.719 45.617-42.523 45.617-28.815 0-37.316-24.753-37.316-36.861 0-26.186 45.14-19.877 68.423-29.702 22.999-9.71 30.437-28.815 30.437-48.465 0-18.317-9.508-57.633-52.404-57.633-19.305 0-37.955 11.803-43.838 18.668l-13.116-14.086h-4.166l0.022 55.332zM309.458 429.010c-10.459-37.114-28.582-59.294-63.196-59.294-19.582 0-39.658 9.348-50.978 25.465-13.435 19.108-21.434 37.344-21.434 62.43 0 48.644 30.891 93.661 68.908 93.661 33.719 0 66.336-28.664 66.336-65.988 0-1.978 0.241-8.697 0.241-8.697l-97.182-0.050c-2.94 0-4.736-1.145-4.736-4.764v-44.144c0-13.724 4.912-49.814 43.866-49.814 36.494 0 47.303 39.644 52.14 53.015l6.035-1.821zM278.912 503.257c0 9.508-4.046 41.97-35.826 41.97-30.453 0-35.75-29.833-35.75-41.97v-13.152c0-3.602 1.81-4.741 4.752-4.741h62.057c2.94 0 4.741 1.139 4.741 4.741l0.025 13.152zM597.879 429.602h5.709c2.609-11.141 20.317-53.739 56.014-53.739 35.714 0 38.979 33.778 38.979 39.347 0 5.566 0.679 24.231-38.668 29.46-39.268 5.252-62.486 22.27-62.486 51.402 0 29.124 21.285 52.392 52.042 52.392 24.871 0 35.010-17.055 35.010-17.055h1.666l7.524 12.108h3.841v-46.787h-5.131c-2.312 10.481-13.778 45.617-42.61 45.617-28.79 0-37.26-24.753-37.26-36.861 0-26.186 45.163-19.877 68.392-29.702 22.999-9.71 30.459-28.815 30.459-48.465 0-18.317-9.513-57.633-52.387-57.633-19.327 0-37.995 11.803-43.878 18.668l-13.076-14.086h-4.161l0.020 55.332zM858.261 429.010c-10.481-37.114-28.585-59.294-63.165-59.294-19.638 0-39.692 9.348-51.001 25.465-13.405 19.108-21.456 37.344-21.456 62.43 0 48.644 30.888 93.661 68.936 93.661 33.727 0 66.324-28.664 66.324-65.988 0-1.978 0.252-8.697 0.252-8.697l-97.196-0.050c-2.923 0-4.769-1.145-4.769-4.764v-44.144c0-13.724 4.929-49.814 43.903-49.814 36.466 0 47.884 39.835 52.134 53.015l6.037-1.821zM827.723 503.257c0 9.508-4.107 41.97-35.815 41.97-30.47 0-35.773-29.833-35.773-41.97v-13.152c0-3.602 1.798-4.741 4.747-4.741h62.068c2.929 0 4.758 1.139 4.758 4.741l0.014 13.152zM1197.297 429.010c-10.445-37.114-28.582-59.294-63.213-59.294-19.599 0-39.689 9.348-50.967 25.465-13.449 19.108-21.411 37.344-21.411 62.43 0 48.644 30.886 93.661 68.863 93.661 33.727 0 66.338-28.664 66.338-65.988 0-1.978 0.247-8.697 0.247-8.697l-97.179-0.050c-2.957 0-4.736-1.145-4.736-4.764v-44.144c0-13.724 4.884-49.814 43.844-49.814 36.471 0 47.934 39.835 52.145 53.015l6.068-1.821zM1166.726 503.257c0 9.508-4.040 41.97-35.792 41.97-30.482 0-35.79-29.833-35.79-41.97v-13.152c0-3.602 1.835-4.741 4.764-4.741h62.074c2.926 0 4.727 1.139 4.727 4.741l0.017 13.152z" horiz-adv-x="1316" />
<glyph unicode="&#xe625;" d="M374.163 89.911c6.842-2.396 9.993-10.242 7.446-17.616-2.653-7.676-9.966-11.688-16.773-9.363-6.567 2.272-10.046 10.144-7.463 17.669 2.564 7.49 10.259 11.537 16.79 9.31v0zM443.199 23.547l-33.821 5.875 0.382 2.325c10.445-1.802 11.342 2.032 12.433 8.227l6.665 38.613c0.435 2.396 1.18 6.816-2.37 7.455-1.233 0.186-4.509-0.488-7.747-1.269l0.471 2.653 24.53 6.958 1.58-0.258-9.869-57.010c-1.127-6.7-0.781-9.523 8.156-11.174l-0.408-2.396zM499.046 74.913c-0.418-8.6-8.075-11.874-13.117-13.427 7.57-5.618 13.081-12.948 12.575-22.399-0.657-12.833-9.513-20.216-22.585-19.471-9.86 0.452-18.797 6.744-18.131 18.051 0.488 11.084 8.28 14.572 14.519 16.391-6.62 4.677-12.168 11.067-11.697 19.488 0.471 9.47 7.047 17.776 21.672 17.048 13.844-0.683 17.057-9.798 16.764-15.681v0zM483.8 63.456c2.218 3.018 4.020 5.405 4.33 11.439 0.293 5.192-0.728 12.469-7.499 12.886-4.455 0.204-7.676-3.745-7.881-7.907-0.506-9.451 10.179-15.903 11.049-16.418v0zM476.726 22.766c8.138-0.382 8.591 8.786 8.786 11.484 0.418 8.333-5.316 12.94-11.315 17.882-2.973-4.455-5.023-7.535-5.44-14.883-0.311-7.313 2.015-14.209 7.969-14.484v0zM545.451 22.242l-37.921-2.44-0.177 2.342c13.614 18.503 23.766 32.569 23.003 44.639-0.222 2.707-2.325 12.78-11.714 12.211-2.13-0.107-7.73-1.145-10.534-9.869l-2.564-0.107c1.42 5.769 5.857 21.104 18.708 21.992 5.644 0.311 17.11-2.494 18.184-17.935 0.16-2.911 0.621-10.658-9.026-22.382l-13.774-16.596 13.774 0.932c9.682 0.621 10.41 1.713 12.567 8.697l2.201 0.142-2.724-21.627zM595.459 56.906l2.112-11.12-5.662-1.038 2.645-14.359-13.064-2.529-2.636 14.448-22.329-4.198-2.13 11.262c5.387 15.7 14.084 34.824 20.163 48.402l7.1 1.331 8.129-43.291 5.671 1.092zM571.454 82.794l-0.204-0.089-13.064-32.756 18.814 3.434-5.547 29.41zM630.745 91.677c6.834 2.432 14.244-1.668 16.906-9.052 2.743-7.535-0.418-15.175-7.153-17.776-6.514-2.289-14.173 1.508-16.835 8.999-2.734 7.401 0.586 15.478 7.082 17.829v0zM702.558 213.693c5.716 4.944 11.279 10.037 16.684 15.38 59.051 58.573 91.79 136.58 92.136 219.726 0.364 83.199-31.682 161.526-90.219 220.56-58.519 59.016-136.571 91.754-219.726 92.083-83.12 0.399-161.455-31.611-220.524-90.148-58.998-58.537-91.718-136.58-92.056-219.673-0.399-83.199 31.594-161.526 90.148-220.56 5.964-5.991 12.096-11.705 18.432-17.199l17.794 10.401c-7.766 6.39-15.265 13.196-22.489 20.474-54.827 55.351-84.903 128.788-84.522 206.751 0.311 77.954 30.972 151.161 86.35 206.059 55.369 54.862 128.815 84.921 206.769 84.539 77.99-0.328 151.142-31.008 206.059-86.367 54.916-55.351 84.939-128.779 84.592-206.786-0.364-78.008-31.025-151.161-86.412-206.059-6.842-6.806-13.977-13.196-21.414-19.222l18.397-9.957zM621.986 184.807c-38.125-17.519-79.933-26.659-123.152-26.446h-0.017c-43.148 0.16-84.867 9.664-122.762 27.44l-23.314-9.975c44.381-23.854 94.239-36.679 146.013-36.901h-0.026c52.715-0.222 103.522 12.584 148.631 36.847l-25.373 9.035zM707.599 110.571c0 0-9.585-3.585-10.543-3.585 0.958 11.635 19.115 20.412 19.115 20.412l10.57-9.735v-2.724l-19.143-4.366zM558.587 223.050l0.904 4.217-13.418 2.875-0.904-4.217 13.418-2.875zM511.095 195.351c-1.223-9.192 13.242-17.688 31.845-20.006 18.71-2.27 34.702 2.326 35.846 11.557 0.795 6.198-6.636 13.149-16.987 17.067l-1.527-4.034c8.687-3.289 14.695-8.908 14.235-12.494-0.729-5.88-14.462-9.827-31.041-7.816-16.464 2.051-28.87 9.339-28.092 15.191 0.48 4.115 12.507 6.806 28.339 6.293l0.139 4.311c-18.398 0.596-31.866-2.418-32.758-10.070zM726.727 115.901c-20.555-2.265-30.869-4.96-30.869-9.882 0-4.35 7.819-6.734 23.754-8.942 13.961-1.935 33.453-3.384 55.717-4.129l3.253-0.109-1.168 3.038-9.163 23.952 22.54 21.124 3.568 3.454-4.959 0.249c-12.362 0.622-24.286 1.562-35.414 2.794l-1.139 0.126-0.742-0.874-25.375-30.801zM786.306 141.306l-22.943-20.904 9.235-23.144c-22.126 0.741-38.601 2.18-52.394 4.091-6.836 0.947-12.177 1.994-15.768 3.088-1.728 0.527-3.794 1.542-3.794 1.542 0 0-0.060 0.115 0.403 0.368 1.119 0.609 2.892 1.242 5.255 1.86 4.825 1.261 21.754 3.5 21.754 3.5l25.457 31.455c11.216-1.242 20.35-1.23 32.796-1.856zM650.862 240.592c-4.277 1.635-8.725 3.166-13.325 4.596-15.124 4.699-31.29 8.141-47.611 10.544-5.851 0.861-11.358 1.534-16.485 2.051-1.853 0.187-3.546 0.343-5.146 0.478-0.902 0.076-2.68 0.217-2.573 0.207-1.36 0.008-2.958-1.073-5.971-4.048-5.24-5.253-6.045-12.362-4.684-25.219 0.091-0.86 0.178-1.646 0.335-3.023 0.39-3.435 0.521-4.665 0.662-6.35 0.653-7.925 1.099-13.002 1.374-15.796 0.1-1.014 0.171-1.666 0.222-2.037 0.093-0.545 0.093-0.545 0.248-0.936 0.138-0.385 0.138-0.385 1.417-1.143 75.977-14.808 132.573-42.886 162.080-82.222l4.978-4.261 1.502-1.263 1.399 1.377c0.074 0.073 0.213 0.211 0.413 0.412 0.33 0.331 0.712 0.718 1.142 1.159 1.225 1.255 2.589 2.685 4.057 4.268 4.195 4.521 8.389 9.357 12.308 14.318 3.966 5.020 7.43 9.895 10.252 14.531 2.348 3.858 4.219 7.499 5.556 10.895l0.465 1.334 0.342 0.983-0.557 0.879c-16.873 26.632-64.436 59.932-112.401 78.273zM758.969 160.621c-1.531-3.513-2.968-6.49-5.196-10.151-2.722-4.473-6.088-9.209-9.953-14.1-3.842-4.863-14.867-17.017-16.068-18.246-0.419-0.429-3.235 2.509-3.235 2.509l0.337-0.356c-30.258 40.338-69.971 59.834-163.124 84.173-0.273 2.767-0.716 7.824-1.368 15.73-0.145 1.747-0.279 3-0.674 6.481-0.155 1.368-0.242 2.145-0.331 2.991-1.227 11.592-0.533 17.729 3.436 21.708 1.424 1.406 2.457 2.29 3.125 2.743-0.647 0.075 1.129-0.066 2.016-0.14 1.577-0.133 3.246-0.287 5.074-0.471 5.065-0.512 10.506-1.175 16.29-2.027 16.116-2.372 32.070-5.77 46.959-10.396 4.515-1.403 8.876-2.903 13.065-4.506 47.171-18.038 99.491-55.493 109.648-75.942zM293.546 111.529c0 0 9.585-3.585 10.543-3.585-0.958 11.635-19.115 20.412-19.115 20.412l-10.57-9.735v-2.724l19.143-4.366zM442.558 224.010l-0.904 4.217 13.418 2.875 0.904-4.217-13.418-2.875zM490.050 196.309c1.223-9.191-13.242-17.688-31.845-20.006-18.71-2.27-34.702 2.326-35.846 11.557-0.795 6.198 6.636 13.149 16.987 17.067l1.527-4.034c-8.687-3.289-14.695-8.908-14.235-12.494 0.729-5.88 14.462-9.827 31.041-7.816 16.464 2.051 28.87 9.339 28.092 15.191-0.48 4.115-12.507 6.806-28.339 6.293l-0.139 4.311c18.398 0.596 31.866-2.418 32.758-10.070zM274.418 116.859c20.555-2.265 30.869-4.96 30.869-9.882 0-4.35-7.819-6.734-23.754-8.942-13.961-1.935-33.453-3.384-55.717-4.129l-3.253-0.108 1.168 3.038 9.163 23.952-22.54 21.124-3.568 3.454 4.959 0.249c12.362 0.622 24.286 1.562 35.414 2.794l1.139 0.126 0.742-0.874 25.375-30.801zM214.84 142.264l22.943-20.904-9.235-23.144c22.126 0.741 38.601 2.18 52.394 4.091 6.836 0.947 12.177 1.994 15.768 3.088 1.728 0.527 3.794 1.542 3.794 1.542 0 0 0.060 0.115-0.403 0.368-1.119 0.609-2.892 1.242-5.255 1.86-4.825 1.261-21.754 3.5-21.754 3.5l-25.457 31.455c-11.216-1.242-20.35-1.23-32.796-1.856zM350.283 241.551c4.277 1.635 8.725 3.166 13.325 4.596 15.124 4.699 31.29 8.141 47.611 10.544 5.851 0.861 11.358 1.534 16.485 2.051 1.853 0.187 3.546 0.343 5.146 0.478 0.902 0.076 2.68 0.217 2.573 0.207 1.36 0.008 2.958-1.073 5.971-4.048 5.24-5.253 6.045-12.362 4.684-25.219-0.091-0.86-0.178-1.646-0.335-3.023-0.39-3.435-0.521-4.665-0.662-6.35-0.653-7.925-1.099-13.002-1.374-15.796-0.1-1.014-0.171-1.666-0.222-2.037-0.093-0.545-0.093-0.545-0.248-0.936-0.138-0.385-0.138-0.385-1.417-1.143-75.977-14.808-132.573-42.886-162.080-82.222l-4.978-4.261-1.502-1.263-1.399 1.377c-0.074 0.073-0.213 0.211-0.413 0.412-0.33 0.331-0.712 0.718-1.142 1.159-1.225 1.255-2.589 2.685-4.057 4.268-4.195 4.521-8.389 9.357-12.308 14.318-3.966 5.020-7.43 9.895-10.252 14.531-2.348 3.858-4.219 7.499-5.556 10.895l-0.465 1.334-0.342 0.983 0.557 0.879c16.873 26.632 64.436 59.932 112.401 78.273zM242.176 161.58c1.531-3.513 2.968-6.49 5.196-10.151 2.722-4.473 6.088-9.209 9.953-14.1 3.842-4.863 14.867-17.017 16.068-18.246 0.419-0.429 3.235 2.509 3.235 2.509l-0.337-0.356c30.258 40.338 69.971 59.834 163.124 84.173 0.273 2.767 0.716 7.824 1.368 15.73 0.145 1.747 0.279 3 0.674 6.481 0.155 1.368 0.242 2.145 0.331 2.991 1.227 11.592 0.533 17.729-3.436 21.708-1.424 1.406-2.457 2.29-3.125 2.743 0.647 0.075-1.129-0.066-2.016-0.14-1.577-0.133-3.246-0.287-5.074-0.471-5.065-0.512-10.506-1.175-16.29-2.027-16.116-2.372-32.069-5.77-46.959-10.396-4.515-1.403-8.876-2.903-13.065-4.506-47.171-18.038-99.491-55.493-109.648-75.942zM452.895 261.253l-1.762-0.327c0 0-0.399-4.137 0-7.476s1.041-12.463 1.829-19.171c0.369-3.142 0.784-6.424 1.236-9.808 0.662-4.946 1.371-9.865 2.079-14.53 0.248-1.633 1.286-8.139 1.286-8.139l2.088 0.291c12.89 1.798 33.246 2.991 41.398 2.738s9.166-0.362 15.046-0.831c3.16-0.252 6.485-0.55 9.917-0.885 3.892-0.381 7.718-0.789 11.313-1.196 1.257-0.142 2.397-0.275 3.396-0.394 0.35-0.042 0.657-0.078 0.918-0.11 0.264-0.032 0.264-0.032 0.317-0.039l2.098-0.259 0.3 2.093c2.121 14.789 3.637 31.411 4.517 49.376l0.144 1.815 0.117 4.698 0.045 1.832-1.8 0.34c-14.448 2.727-30.888 4.138-48.261 4.138-16.597-0.165-32.241-1.557-46.219-4.155zM501.271 261.047l-2.156 0.048c17.115 0 45.657-3.104 45.633-3.709l-0.18-4.525c-0.879-17.901-3.944-47.096-4.297-47.054-1.007 0.12-1.195 0.253-2.461 0.396-3.615 0.41-7.463 0.821-11.379 1.203-3.456 0.338-6.806 0.638-9.994 0.892-5.96 0.475-15.35 0.835-15.35 0.835-5.159 0-14.454-0.417-20.624-0.939-11.465-0.97-19.193-2.305-19.239-2.008-0.205 1.3-0.435 2.777-0.681 4.401-0.705 4.641-1.411 9.535-2.068 14.455-0.45 3.362-0.861 6.621-1.227 9.739-0.778 6.629-1.325 12.409-1.59 17.087 0 0-0.67 5.382-0.015 5.498 13.219 2.323 27.923 3.57 43.487 3.667l2.143 0.014zM210.392 227.369c2.929 2.29 4.659 3.896 5.174 4.765 0.542 0.87 0.763 1.837 0.639 2.929-0.124 1.056-0.949 2.6-2.512 4.579l1.384 1.092 17.359-22.071-1.384-1.073c-1.58 1.997-2.875 3.15-3.896 3.506-1.020 0.364-2.005 0.364-2.956 0.053-0.968-0.293-2.911-1.58-5.84-3.896l-35.223-27.698c-2.911-2.289-4.641-3.869-5.174-4.765-0.542-0.87-0.746-1.837-0.621-2.929 0.124-1.047 0.949-2.591 2.494-4.571l-1.384-1.092-15.681 19.959c-4.1 5.192-6.656 9.354-7.659 12.505-0.985 3.115-0.87 6.371 0.382 9.798 1.233 3.434 3.487 6.434 6.753 9.007 3.984 3.142 8.173 4.597 12.575 4.366 2.787-0.186 5.618-1.233 8.493-3.186l10.206 24.636c1.286 3.212 1.997 5.36 2.094 6.407 0.142 1.491-0.186 2.839-1.003 4.074l1.455 1.163 10.667-13.542-13.72-33.155 2.184-2.813 15.193 11.954zM192.324 213.143l-1.384 1.802c-2.299 2.946-4.366 4.854-6.185 5.769-1.819 0.932-3.914 1.127-6.319 0.542-2.405-0.559-5.023-1.943-7.828-4.18-4.082-3.221-6.531-6.337-7.277-9.408-0.763-3.053 0.177-6.275 2.839-9.638l2.645-3.381 23.509 18.494zM153.825 266.018l-0.523 0.932c-1.695 3.053-4.118 4.605-7.26 4.633-3.15 0.053-7.171-0.994-12.051-3.212l-0.71 1.286 31.496 17.368 0.71-1.26c-3.274-2.165-5.733-4.295-7.41-6.434-1.677-2.13-2.564-4.003-2.653-5.618-0.089-1.615 0.506-3.541 1.766-5.831l16.888 9.318c3.31 1.819 5.262 3.053 5.874 3.674 0.621 0.621 1.003 1.367 1.145 2.218 0.142 0.905-0.177 1.979-0.932 3.355l-1.58 2.858c-2.459 4.455-5.716 7.331-9.788 8.582-4.065 1.287-9.079 1.039-15.033-0.763l-0.728 1.331 20.288 8.36 22.745-41.231-1.544-0.87-0.887 1.615c-0.763 1.367-1.677 2.308-2.787 2.822-0.746 0.382-1.713 0.418-2.911 0.186-0.852-0.124-2.822-1.020-5.857-2.707l-39.58-21.849c-2.777-1.527-4.419-2.494-4.978-2.982-0.915-0.79-1.482-1.668-1.713-2.609-0.346-1.349-0.089-2.805 0.763-4.366l0.879-1.58-1.535-0.87-22.035 39.944 17.741 9.798 0.71-1.269c-3.95-3.106-6.531-5.804-7.747-8.076-1.216-2.246-1.633-4.775-1.252-7.517 0.177-1.633 1.287-4.233 3.293-7.872l2.707-4.863 24.494 13.499zM130.112 346.271l-27.574-9.869c-3.914-1.402-6.407-2.805-7.482-4.18-1.42-1.899-1.615-4.242-0.523-7.1l-1.668-0.568-6.079 17.031 1.668 0.586c1.127-2.077 2.112-3.381 2.946-3.914 0.825-0.523 1.935-0.798 3.355-0.728 1.42 0.017 3.674 0.586 6.772 1.695l53.806 19.302 0.471-1.314-41.542-54.162 41.276 14.794c3.781 1.349 6.061 2.946 6.896 4.784 0.834 1.837 0.923 3.674 0.275 5.44l-0.452 1.252 1.668 0.586 6.567-18.3-1.668-0.586c-1.038 2.805-2.494 4.49-4.33 5.094-1.837 0.55-4.509 0.231-7.969-1.003l-45.544-16.321-1.367-1.783c-1.384-1.749-2.201-3.142-2.459-4.162-0.258-1.038-0.142-2.342 0.346-3.896l-1.659-0.586-6.541 18.255 30.812 39.652zM97.631 394.238l0.311-1.633c-5.441-1.899-9.585-4.668-12.407-8.342-2.822-3.674-3.896-7.224-3.204-10.667 0.542-2.743 1.855-4.677 3.967-5.893 2.112-1.18 4.349-1.562 6.682-1.073 1.491 0.275 2.777 0.798 3.816 1.58 1.42 1.056 2.698 2.6 3.896 4.579 0.852 1.473 2.201 4.722 4.091 9.771 2.609 7.055 5.441 12.034 8.44 14.918 3.009 2.839 6.736 4.712 11.174 5.565 5.627 1.127 10.809 0.328 15.54-2.342 4.748-2.707 7.659-6.71 8.715-12.051 0.328-1.695 0.435-3.328 0.293-4.925-0.124-1.58-0.568-3.639-1.314-6.15-0.418-1.402-0.542-2.485-0.382-3.266 0.142-0.693 0.621-1.349 1.438-1.979 0.834-0.657 1.979-1.073 3.443-1.295l0.275-1.402-25.373-5.040-0.293 1.438c6.913 2.564 11.919 5.857 14.981 9.895 3.097 4.046 4.26 7.979 3.515 11.795-0.586 2.946-2.059 5.085-4.419 6.443-2.378 1.349-4.899 1.73-7.57 1.216-1.597-0.311-3.071-0.949-4.419-1.908-1.367-1.003-2.564-2.289-3.639-3.922-1.056-1.668-2.325-4.419-3.79-8.333-2.041-5.467-3.914-9.451-5.618-12.016-1.695-2.512-3.736-4.615-6.132-6.275-2.396-1.651-5.165-2.777-8.316-3.408-5.369-1.056-10.25-0.418-14.634 1.97-4.384 2.396-7.064 5.946-8.022 10.729-0.328 1.749-0.418 3.506-0.204 5.227 0.142 1.314 0.568 2.982 1.295 4.961 0.71 2.015 1.003 3.363 0.87 4.091-0.142 0.657-0.506 1.145-1.109 1.42-0.604 0.293-1.962 0.418-4.038 0.399l-0.204 1.083 22.346 4.846zM74.309 440.697c0.559-0.382 0.87-0.905 0.923-1.589 0.053-0.728-0.418-2.015-1.384-3.914-0.968-1.873-1.615-3.47-1.926-4.748-0.418-1.695-0.586-3.434-0.471-5.2 0.328-4.863 2.529-8.759 6.567-11.671 4.056-2.946 8.804-4.215 14.271-3.852 3.204 0.204 6.106 0.985 8.662 2.325 2.6 1.314 4.89 3.142 6.913 5.422 2.015 2.308 4.384 6.026 7.117 11.208 1.943 3.656 3.549 6.256 4.837 7.721 1.269 1.535 2.627 2.681 4.1 3.434 1.455 0.817 3.018 1.252 4.624 1.349 2.715 0.186 5.165-0.542 7.331-2.174 2.184-1.668 3.372-3.967 3.568-6.931 0.258-3.896-1.402-7.659-4.987-11.279-3.585-3.577-8.973-6.23-16.143-7.898l0.107-1.438 25.834 1.73-0.089 1.455c-1.455 0.382-2.529 0.949-3.274 1.677-0.728 0.728-1.109 1.455-1.163 2.165-0.053 0.798 0.204 1.873 0.798 3.178 1.073 2.396 1.766 4.402 2.094 5.964 0.328 1.562 0.452 3.186 0.328 4.908-0.346 5.422-2.707 9.788-7.064 13.081-4.366 3.257-9.389 4.712-15.105 4.33-4.526-0.311-8.44-1.668-11.821-4.1-3.328-2.476-6.753-7.047-10.285-13.702-2.512-4.748-4.278-7.8-5.307-9.15-1.455-1.802-2.929-3.142-4.447-4.046-1.145-0.621-2.476-0.968-3.984-1.056-2.387-0.186-4.553 0.471-6.496 1.962-1.935 1.446-2.991 3.541-3.186 6.301-0.222 3.532 1.287 6.931 4.571 10.179 3.257 3.274 7.73 5.475 13.374 6.691l-0.107 1.668-22.799-1.962 0.071-1.154c2.077-0.222 3.399-0.523 3.95-0.887zM104.651 479.575l0.089 1.073c0.258 3.47-0.905 6.097-3.506 7.827-2.609 1.766-6.567 3.106-11.848 3.931l0.107 1.455 35.862-2.751-0.107-1.455c-3.931 0-7.171-0.452-9.735-1.295-2.564-0.852-4.313-1.926-5.281-3.221-0.949-1.295-1.544-3.274-1.73-5.875l19.249-1.491c3.736-0.275 6.061-0.328 6.913-0.142 0.87 0.177 1.597 0.586 2.165 1.252 0.604 0.639 0.949 1.73 1.073 3.293l0.258 3.274c0.399 5.076-0.763 9.248-3.461 12.567-2.724 3.293-7.047 5.822-12.992 7.606l0.124 1.5 21.548-4.118-3.639-46.982-1.766 0.124 0.16 1.819c0.124 1.597-0.142 2.875-0.781 3.914-0.418 0.71-1.19 1.314-2.316 1.766-0.798 0.382-2.929 0.693-6.407 0.932l-45.1 3.496c-3.124 0.222-5.059 0.311-5.769 0.222-1.225-0.186-2.165-0.604-2.875-1.252-1.038-0.932-1.615-2.289-1.749-4.074l-0.142-1.837-1.766 0.177 3.515 45.456 20.198-1.562-0.107-1.42c-5.006-0.452-8.626-1.286-10.88-2.494-2.272-1.252-4.003-3.115-5.2-5.609-0.71-1.455-1.233-4.225-1.562-8.369l-0.418-5.591 27.875-2.148zM143.3 557.468c2.352-2.041 3.931-4.127 4.73-6.301 0.798-2.148 0.852-4.615 0.177-7.41l-1.073-4.437c-0.604-2.512-1.145-4.056-1.597-4.641-0.674-0.798-1.518-1.252-2.529-1.314-1.020-0.089-3.221 0.275-6.638 1.109l-42.562 10.321c-3.372 0.834-5.44 1.473-6.15 1.979-1.038 0.657-1.695 1.384-2.015 2.201-0.471 1.092-0.523 2.396-0.142 3.95l0.559 2.308-1.713 0.418-6.86-28.292 1.713-0.418 0.435 1.783c0.364 1.455 0.968 2.564 1.837 3.293 0.852 0.693 1.749 1.109 2.671 1.18 0.932 0.089 3.133-0.275 6.585-1.109l43.929-10.649c3.39-0.834 5.441-1.473 6.168-1.979 1.038-0.621 1.713-1.348 2.015-2.165 0.471-1.073 0.523-2.396 0.142-3.914l-0.435-1.802 1.73-0.418 11.413 47.088-22.95 7.694-0.426-1.721c4.952-2.476 8.626-4.748 10.987-6.753zM165.522 601.947c0.674-0.107 1.278-0.293 1.837-0.523 0.949-0.399 1.544-1.003 1.802-1.766 0.364-1.073 0.124-2.583-0.728-4.535l-0.435-1.039 1.633-0.693 10.463 24.325-1.633 0.693c-0.834-1.473-1.908-2.423-3.221-2.839-1.766-0.586-5.494-0.657-11.174-0.204l-59.486 4.118-0.293-0.693 42.58-39.58c4.127-3.798 6.682-6.603 7.747-8.422 1.038-1.855 1.348-3.728 0.923-5.662l1.633-0.693 7.171 16.666-1.633 0.71c-1.349-2.494-2.423-3.967-3.221-4.447-1.331-0.746-2.893-0.746-4.677 0.036-1.348 0.568-2.911 1.668-4.677 3.221l-5.2 4.828 7.552 17.562 9.035-0.683c2.361-0.204 3.692-0.346 4.003-0.382zM123.803 605.062l24.724-1.766-6.514-15.158-18.211 16.924zM161.626 656.96l0.586 0.905c1.89 2.946 2.094 5.822 0.621 8.608-1.455 2.777-4.313 5.804-8.572 9.061l0.798 1.216 30.263-19.409-0.781-1.224c-3.443 1.845-6.496 2.991-9.167 3.461-2.662 0.471-4.73 0.346-6.203-0.346-1.455-0.693-2.893-2.148-4.295-4.349l16.231-10.41c3.186-2.032 5.192-3.168 6.044-3.408 0.852-0.222 1.677-0.204 2.512 0.089 0.817 0.293 1.651 1.092 2.494 2.387l1.766 2.76c2.743 4.295 3.692 8.502 2.875 12.718-0.825 4.18-3.443 8.457-7.845 12.833l0.825 1.286 17.031-13.862-25.426-39.652-1.473 0.949 0.968 1.544c0.843 1.349 1.243 2.618 1.171 3.816-0.036 0.825-0.444 1.713-1.207 2.645-0.542 0.71-2.272 1.979-5.2 3.869l-38.063 24.387c-2.645 1.695-4.313 2.689-4.97 2.946-1.163 0.418-2.201 0.523-3.124 0.275-1.348-0.346-2.512-1.269-3.479-2.777l-0.985-1.535-1.491 0.949 24.618 38.426 17.084-10.942-0.798-1.216c-4.597 1.979-8.191 2.982-10.756 2.964-2.564-0.017-4.987-0.852-7.241-2.494-1.314-0.923-3.080-3.142-5.316-6.638l-3.018-4.748 23.526-15.086zM187.016 730.522c3.133-0.204 6.656-2.041 10.543-5.494 2.689-2.387 4.526-4.712 5.494-6.985 0.968-2.263 1.171-4.366 0.586-6.319-0.586-1.962-2.112-4.313-4.615-7.1l-1.508-1.695-22.364 19.906 2.875 3.195c2.858 3.204 5.857 4.695 8.99 4.49zM237.654 695.467l11.484 12.912-1.42 1.225c-1.038-1.020-2.325-1.606-3.833-1.713-1.038-0.071-3.257 0.239-6.656 0.932l-26.038 5.706c1.402 3.168 1.935 6.15 1.606 8.919-0.559 4.366-2.698 8.244-6.496 11.608-3.097 2.777-6.461 4.447-10.046 5.076-3.585 0.604-6.842 0.16-9.735-1.367-2.911-1.535-6.567-4.784-10.951-9.718l-16.871-18.974 1.314-1.18c1.668 1.89 3.018 2.982 4.056 3.274 1.038 0.293 2.041 0.275 2.991-0.107 0.949-0.364 2.822-1.783 5.618-4.278l33.466-29.765c2.777-2.476 4.384-4.162 4.854-5.059 0.488-0.887 0.639-1.864 0.488-2.929-0.151-1.065-1.092-2.547-2.777-4.455l1.314-1.18 18.654 20.962-1.331 1.171c-1.659-1.864-3.009-2.973-4.056-3.274s-2.032-0.258-2.999 0.107c-0.949 0.382-2.822 1.819-5.591 4.278l-14.448 12.859 2.361 2.645 35.045-7.676zM256.033 791.118c2.839-0.861 5.751-3.372 8.724-7.517 3.018-4.153 4.543-7.757 4.526-10.792-0.017-3.053-1.367-5.529-4.038-7.446-0.382-0.293-0.949-0.639-1.713-1.127l-17.412 24.095 1.322 0.949c2.893 2.094 5.769 2.698 8.591 1.837zM279.454 780.379c-0.071 3.878-1.42 7.623-4.038 11.226-3.106 4.278-7.047 6.825-11.883 7.676-4.837 0.87-10.428-1.020-16.826-5.644l-19.337-13.96 1.039-1.438c2.041 1.491 3.603 2.272 4.712 2.325 1.073 0.071 2.059-0.177 2.946-0.746 0.87-0.559 2.396-2.378 4.597-5.405l26.136-36.155c2.184-3.035 3.417-5.059 3.674-6.053 0.239-1.003 0.186-1.988-0.204-3.009-0.382-1.020-1.597-2.272-3.674-3.781l1.020-1.438 22.568 16.321-1.038 1.438c-1.997-1.455-3.549-2.218-4.641-2.289-1.109-0.089-2.077 0.16-2.946 0.746-0.852 0.568-2.396 2.396-4.571 5.441l-11.138 15.415c5.050 3.63 8.378 6.541 10.001 8.724 2.494 3.204 3.674 6.736 3.603 10.605zM320.401 820.306c3.239-3.399 6.896-9.132 11.014-17.199 3.47-6.789 5.689-12.593 6.638-17.412 0.985-4.81 0.896-8.715-0.222-11.723-0.905-2.342-2.6-4.144-5.059-5.405-3.674-1.864-7.41-1.57-11.208 0.87-5.475 3.506-10.863 10.445-16.161 20.864-4.464 8.759-6.949 15.965-7.41 21.619-0.586 6.896 1.349 11.466 5.822 13.755 2.387 1.216 4.97 1.473 7.668 0.781 2.724-0.693 5.68-2.76 8.919-6.15zM292.26 784.045c4.1-8.067 9.558-14.102 16.355-18.051 8.572-5.006 17.27-5.262 26.055-0.798 8.715 4.447 13.48 11.795 14.288 22.054 0.621 7.747-1.020 15.486-4.97 23.234-4.615 9.061-10.898 15.38-18.832 18.929-7.934 3.585-15.7 3.204-23.287-1.127-7.366-3.284-11.972-9.229-13.809-17.784-1.837-8.555-0.435-17.376 4.198-26.455zM408.269 795.271l-46.113-14.83-0.523 1.668 1.73 0.568c1.491 0.471 2.6 1.19 3.274 2.184 0.542 0.674 0.798 1.615 0.798 2.822 0.036 0.87-0.488 2.964-1.544 6.275l-13.844 43.050c-1.073 3.381-1.908 5.458-2.476 6.203-0.559 0.736-1.349 1.314-2.405 1.659-1.056 0.364-2.299 0.311-3.754-0.16l-1.73-0.559-0.542 1.677 27.698 8.901 0.559-1.677-2.28-0.728c-1.508-0.488-2.6-1.216-3.293-2.184-0.523-0.674-0.798-1.633-0.834-2.858-0.036-0.87 0.488-2.964 1.544-6.275l13.392-41.702c1.073-3.328 1.908-5.405 2.512-6.239 0.604-0.817 1.438-1.314 2.476-1.473 0.728-0.089 2.316 0.258 4.784 1.056l4.313 1.384c2.76 0.905 4.837 2.237 6.275 4.056 1.42 1.802 2.387 4.225 2.875 7.313 0.506 3.061 0.506 7.366 0.053 12.886l1.668 0.576 5.387-23.598zM458.676 871.858c-1.766-0.586-3.009-1.455-3.807-2.6-1.092-1.633-2.6-5.804-4.464-12.522l-7.774-26.508 2.609-16.391c0.559-3.532 1.038-5.716 1.473-6.531 0.418-0.817 1.092-1.482 2.077-2.005 0.949-0.523 2.165-0.657 3.585-0.435l3.053 0.488 0.275-1.749-30.174-4.784-0.275 1.749 2.787 0.435c1.57 0.239 2.787 0.817 3.621 1.668 0.621 0.586 1.038 1.473 1.252 2.689 0.142 0.843-0.071 2.991-0.604 6.443l-2.184 13.561-17.359 27.165c-3.417 5.36-5.724 8.476-6.896 9.318-1.216 0.87-2.671 1.18-4.419 0.923l-0.258 1.749 25.727 4.082 0.275-1.73-1.162-0.186c-1.562-0.239-2.6-0.71-3.124-1.384-0.523-0.674-0.728-1.331-0.639-1.997 0.186-1.216 1.749-4.127 4.677-8.732l13.356-20.819 6.514 21.964c1.597 5.458 2.254 9.026 1.997 10.685-0.16 0.905-0.604 1.615-1.367 2.112-1.038 0.693-2.777 0.949-5.245 0.728l-0.258 1.749 16.453 2.618 0.275-1.749zM522.909 855.876h-1.455c-0.834 4.278-1.783 7.384-2.822 9.248-1.056 1.864-2.476 3.355-4.313 4.481-0.985 0.604-2.787 0.923-5.334 0.923h-4.162v-53.008c0-3.549 0.16-5.786 0.471-6.656 0.311-0.905 0.923-1.668 1.802-2.342 0.887-0.657 2.094-0.985 3.621-0.985h1.802v-1.766h-28.478v1.766h1.802c1.58 0 2.839 0.346 3.771 1.073 0.693 0.488 1.269 1.287 1.668 2.459 0.293 0.817 0.452 2.946 0.452 6.443v53.008h-4.153c-3.656 0-6.328-1.003-8.005-2.946-2.308-2.734-3.763-6.656-4.366-11.705h-1.562v18.61h49.263v-18.601zM552.108 839.031l1.056-0.177c3.443-0.506 6.15 0.488 8.094 2.964 1.935 2.476 3.515 6.319 4.73 11.554l1.438-0.204-5.209-35.596-1.455 0.204c0.258 3.914 0.053 7.171-0.621 9.807-0.674 2.609-1.633 4.437-2.858 5.494-1.233 1.038-3.133 1.766-5.733 2.148l-2.805-19.107c-0.542-3.718-0.736-6.044-0.621-6.896 0.115-0.87 0.497-1.633 1.109-2.272 0.604-0.621 1.668-1.056 3.204-1.278l3.24-0.488c5.023-0.728 9.283 0.142 12.77 2.591 3.479 2.476 6.283 6.62 8.476 12.443l1.518-0.204-5.609-21.228-46.618 6.842 0.258 1.749 1.802-0.258c1.562-0.222 2.875-0.071 3.95 0.506 0.746 0.364 1.384 1.109 1.917 2.201 0.418 0.763 0.887 2.875 1.384 6.319l6.567 44.728c0.471 3.106 0.674 5.006 0.639 5.733-0.089 1.233-0.435 2.218-1.056 2.964-0.861 1.092-2.192 1.766-3.967 2.032l-1.802 0.258 0.258 1.749 45.163-6.62-2.964-20.057-1.438 0.204c-0.071 5.006-0.657 8.679-1.73 11.022-1.073 2.334-2.805 4.189-5.245 5.573-1.367 0.817-4.108 1.527-8.227 2.13l-5.547 0.817-4.065-27.644zM647.535 846.308c-0.834-0.586-1.668-0.746-2.494-0.488-0.657 0.204-1.979 1.252-3.967 3.15-3.461 3.274-7.020 5.475-10.711 6.62-5.006 1.562-10.214 1.473-15.602-0.239-5.369-1.73-10.259-4.987-14.616-9.771-4.366-4.81-7.499-10.339-9.46-16.596-1.837-5.919-2.396-11.883-1.668-17.873 0.728-5.991 2.822-11.057 6.275-15.211 3.47-4.162 7.987-7.082 13.578-8.839 4.233-1.314 8.191-1.597 11.919-0.852 3.701 0.746 7.641 2.583 11.776 5.529l1.749 5.653c-4.419-3.488-8.262-5.706-11.59-6.656-3.293-0.949-6.585-0.923-9.895 0.107-4.003 1.243-6.878 3.496-8.644 6.753-1.749 3.239-2.459 7.463-2.148 12.664 0.311 5.174 1.402 10.72 3.221 16.596 1.855 5.972 4.349 11.138 7.482 15.521 2.44 3.408 5.387 5.875 8.857 7.393 3.461 1.5 6.825 1.749 10.099 0.728 3.914-1.216 6.913-3.887 9.007-8.022 2.112-4.144 2.805-9.354 2.077-15.664l1.508-0.471 7.047 22.745-1.473 0.461c-0.71-1.58-1.491-2.689-2.325-3.24zM676.627 772.721c-1.57-3.124-2.681-4.952-3.328-5.547-0.887-0.87-1.749-1.314-2.6-1.438-1.18-0.204-2.459 0.053-3.878 0.763l-1.58 0.817-0.798-1.597 25.399-12.886 0.79 1.57-1.589 0.798c-1.348 0.693-2.29 1.544-2.787 2.547-0.497 1.003-0.693 1.979-0.568 2.893 0.142 0.932 1.003 2.956 2.618 6.15l20.474 40.309c1.58 3.088 2.689 4.944 3.328 5.529 0.879 0.861 1.749 1.331 2.591 1.438 1.162 0.222 2.459-0.053 3.869-0.755l1.57-0.798 0.817 1.57-25.39 12.895-0.798-1.562 1.58-0.817c1.349-0.693 2.263-1.544 2.787-2.529 0.523-1.020 0.71-1.97 0.586-2.911-0.142-0.923-1.003-2.982-2.609-6.132l-8.804-17.341-17.234 8.768 8.804 17.323c1.58 3.124 2.689 4.961 3.328 5.547 0.87 0.852 1.749 1.331 2.6 1.438 1.145 0.222 2.423-0.036 3.852-0.736l1.589-0.817 0.817 1.57-25.39 12.895-0.798-1.58 1.633-0.817c1.348-0.693 2.263-1.544 2.751-2.529 0.506-1.003 0.693-1.97 0.559-2.893-0.142-0.932-1.003-2.982-2.6-6.15l-20.474-40.299c-1.597-3.124-2.681-4.952-3.328-5.547-0.87-0.887-1.713-1.349-2.564-1.455-1.163-0.204-2.459 0.036-3.869 0.746l-1.624 0.834-0.798-1.58 25.39-12.886 0.781 1.553-1.589 0.834c-1.349 0.674-2.272 1.508-2.777 2.512-0.471 1.003-0.657 1.962-0.559 2.893 0.124 0.932 0.985 2.991 2.6 6.15l9.647 19 17.225-8.741-9.647-19zM743.159 746.026l17.394 23.553c2.476 3.346 3.781 5.893 3.896 7.641 0.142 2.361-1.020 4.419-3.515 6.15l1.056 1.438 14.536-10.756-1.038-1.42c-2.094 1.073-3.639 1.615-4.641 1.597-0.968-0.017-2.059-0.435-3.221-1.252-1.145-0.834-2.698-2.547-4.641-5.192l-33.972-45.979-1.127 0.834 4.384 68.113-26.074-35.294c-2.387-3.204-3.39-5.804-3.044-7.792 0.328-1.97 1.252-3.532 2.769-4.659l1.073-0.798-1.038-1.402-15.664 11.537 1.056 1.42c2.44-1.73 4.562-2.352 6.425-1.819 1.855 0.542 3.887 2.28 6.088 5.262l28.736 38.906 0.177 2.237c0.16 2.218 0.053 3.807-0.293 4.81s-1.163 2.015-2.459 3.044l1.056 1.438 15.593-11.519-3.515-50.097zM759.195 695.317l-20.491 19.782 1.233 1.278 1.295-1.278c1.145-1.092 2.316-1.73 3.515-1.908 0.817-0.107 1.766 0.107 2.839 0.693 0.781 0.382 2.378 1.819 4.801 4.33l31.389 32.552c2.44 2.547 3.896 4.242 4.313 5.076 0.399 0.852 0.506 1.819 0.311 2.929-0.204 1.109-0.834 2.201-1.917 3.239l-1.314 1.269 1.233 1.269 20.491-19.746-1.233-1.287-1.287 1.269c-1.145 1.092-2.299 1.713-3.515 1.864-0.834 0.142-1.783-0.071-2.858-0.639-0.781-0.382-2.396-1.837-4.801-4.33l-31.389-32.552c-2.459-2.564-3.896-4.26-4.278-5.112-0.418-0.834-0.523-1.819-0.346-2.911 0.186-1.109 0.825-2.184 1.935-3.239l1.305-1.26-1.233-1.286zM831.612 681.073l-0.968 1.216c4.118 4.828 6.478 9.566 7.028 14.155 0.568 4.597-0.418 8.502-2.999 11.697-2.13 2.662-5.059 4.349-8.786 5.023-3.701 0.693-7.535 0.311-11.466-1.162-5.040-1.873-10.010-4.765-14.9-8.679-4.784-3.843-8.768-7.827-11.936-11.972-3.168-4.127-4.934-8.022-5.298-11.697-0.364-3.674 0.763-7.153 3.381-10.428 2.184-2.707 4.881-4.579 8.156-5.627 3.274-1.056 7.712-1.367 13.303-0.949l-4.615-3.709c-5.076-0.124-9.354 0.559-12.85 2.015-3.479 1.473-6.62 3.914-9.408 7.384-3.656 4.571-5.769 9.532-6.301 14.918-0.559 5.369 0.559 10.72 3.31 16.107 2.734 5.369 6.531 9.993 11.377 13.889 5.13 4.082 10.827 6.913 17.119 8.457 6.301 1.544 12.158 1.508 17.581-0.089 5.44-1.58 9.798-4.419 13.081-8.519 2.405-2.999 4.136-6.825 5.165-11.466 0.604-2.681 1.109-4.295 1.527-4.828 0.559-0.674 1.331-1.003 2.361-1.003 1.003 0.017 2.246 0.471 3.736 1.402l0.968-1.233-18.566-14.9zM823.474 607.938c0.177 1.109 0.586 2.015 1.233 2.671 0.657 0.693 2.547 1.837 5.697 3.461l40.104 20.891c3.088 1.615 5.059 2.459 5.928 2.564 1.19 0.204 2.165 0.142 2.929-0.275 1.073-0.523 1.979-1.491 2.707-2.875l0.834-1.624 1.58 0.834-13.152 25.257-1.562-0.834 0.834-1.597c0.693-1.349 0.968-2.583 0.798-3.701-0.177-1.109-0.586-1.997-1.233-2.671-0.674-0.657-2.564-1.819-5.697-3.461l-40.104-20.891c-3.106-1.58-5.076-2.423-5.946-2.564-1.19-0.204-2.165-0.107-2.893 0.258-1.092 0.542-1.997 1.508-2.724 2.911l-0.852 1.642-1.58-0.834 13.17-25.257 1.553 0.798-0.825 1.606c-0.728 1.367-0.968 2.6-0.798 3.692zM889.226 620.833c0.488-1.597 0.586-2.875 0.328-3.896-0.258-1.038-1.073-2.405-2.44-4.162l-1.367-1.783-45.58-16.321c-3.461-1.252-6.115-1.562-7.951-1.003-1.855 0.604-3.274 2.289-4.313 5.094l-1.668-0.586 6.55-18.291 1.668 0.586-0.452 1.243c-0.639 1.766-0.542 3.603 0.275 5.44 0.834 1.837 3.142 3.425 6.896 4.784l41.303 14.794-41.578-54.153 0.488-1.314 53.806 19.258c3.088 1.109 5.334 1.695 6.772 1.73 1.402 0.036 2.529-0.204 3.364-0.746 0.834-0.542 1.819-1.855 2.946-3.896l1.668 0.586-6.079 17.031-1.668-0.604c1.073-2.822 0.923-5.192-0.523-7.064-1.073-1.384-3.568-2.777-7.482-4.171l-27.574-9.877 30.822 39.616-6.541 18.291-1.668-0.586zM917.154 521.908c-0.586 0.275-0.968 0.746-1.109 1.42-0.142 0.728 0.16 2.077 0.87 4.056 0.728 1.97 1.163 3.639 1.295 4.987 0.204 1.713 0.142 3.47-0.204 5.227-0.949 4.748-3.621 8.333-8.022 10.711-4.384 2.396-9.248 3.035-14.616 1.997-3.15-0.621-5.919-1.766-8.316-3.434-2.396-1.651-4.447-3.736-6.15-6.283-1.695-2.529-3.568-6.514-5.609-12.008-1.473-3.896-2.724-6.674-3.798-8.316-1.073-1.651-2.28-2.929-3.639-3.931-1.349-0.949-2.822-1.597-4.402-1.908-2.698-0.55-5.209-0.142-7.588 1.216-2.352 1.349-3.825 3.506-4.402 6.443-0.763 3.816 0.418 7.747 3.496 11.803 3.088 4.038 8.076 7.331 14.981 9.895l-0.293 1.438-25.373-5.006 0.275-1.438c1.473-0.222 2.636-0.639 3.443-1.269 0.817-0.657 1.295-1.314 1.438-2.005 0.16-0.781 0.036-1.873-0.382-3.274-0.746-2.512-1.198-4.571-1.314-6.15-0.124-1.597-0.036-3.221 0.293-4.916 1.073-5.36 3.967-9.354 8.715-12.061 4.73-2.662 9.931-3.461 15.54-2.352 4.437 0.861 8.156 2.734 11.174 5.573 2.991 2.875 5.822 7.845 8.44 14.918 1.881 5.006 3.257 8.262 4.082 9.753 1.216 1.997 2.494 3.532 3.914 4.597 1.038 0.746 2.308 1.269 3.798 1.58 2.361 0.488 4.571 0.107 6.7-1.109 2.094-1.198 3.434-3.15 3.967-5.857 0.674-3.47-0.399-7.028-3.204-10.711-2.839-3.639-6.985-6.407-12.416-8.316l0.328-1.633 22.346 4.837-0.222 1.136c-2.077-0.053-3.417 0.089-4.038 0.39zM906.85 451.896l-0.089 1.455c4.26 1.073 7.277 2.184 9.088 3.31 1.819 1.145 3.24 2.689 4.251 4.562 0.559 1.038 0.763 2.822 0.621 5.369l-0.204 4.153-52.936-2.858c-3.532-0.186-5.75-0.471-6.62-0.834-0.87-0.328-1.615-0.985-2.218-1.89-0.621-0.932-0.905-2.165-0.817-3.701l0.089-1.783-1.749-0.089-1.544 28.443 1.766 0.107 0.107-1.837c0.089-1.562 0.506-2.805 1.269-3.701 0.523-0.674 1.367-1.18 2.547-1.508 0.834-0.258 2.991-0.293 6.461-0.107l52.919 2.822-0.204 4.153c-0.204 3.639-1.314 6.275-3.363 7.827-2.875 2.148-6.842 3.399-11.936 3.736l-0.089 1.562 18.566 0.985 2.653-49.174-18.566-1.003zM854.144 416.229l1.988 28.39 1.766-0.107-0.124-1.802c-0.124-1.597 0.16-2.893 0.798-3.922 0.435-0.71 1.216-1.269 2.342-1.749 0.798-0.346 2.929-0.648 6.39-0.914l45.091-3.159c3.549-0.258 5.786-0.293 6.682-0.053 0.896 0.239 1.713 0.763 2.44 1.633 0.728 0.87 1.136 2.059 1.243 3.568l0.124 1.811 1.766-0.124-2.015-28.408-1.749 0.107 0.124 1.819c0.107 1.562-0.16 2.858-0.798 3.869-0.435 0.763-1.216 1.349-2.342 1.802-0.798 0.364-2.929 0.657-6.407 0.905l-45.091 3.178c-3.532 0.239-5.75 0.239-6.665 0.017-0.905-0.222-1.713-0.781-2.44-1.615-0.728-0.825-1.145-2.024-1.252-3.559l-0.124-1.811-1.749 0.124zM893.468 352.598l0.293 1.42c4.366-0.036 7.588 0.275 9.611 0.932 2.059 0.657 3.79 1.766 5.245 3.328 0.798 0.87 1.455 2.547 1.962 5.050l0.834 4.091-51.97 10.445c-3.487 0.71-5.697 0.985-6.62 0.852-0.932-0.124-1.819-0.559-2.636-1.286-0.834-0.728-1.402-1.845-1.713-3.355l-0.346-1.766-1.73 0.364 5.609 27.911 1.749-0.346-0.364-1.783c-0.311-1.544-0.204-2.822 0.311-3.896 0.328-0.781 1.020-1.491 2.077-2.112 0.746-0.452 2.822-1.038 6.239-1.687l51.97-10.49 0.808 4.074c0.71 3.603 0.293 6.416-1.295 8.413-2.237 2.805-5.786 4.997-10.623 6.62l0.293 1.527 18.246-3.692-9.7-48.286-18.246 3.674zM897.807 307.968l-1.651 0.621 0.488 1.314c0.763 2.015 1.003 3.47 0.763 4.402-0.239 0.968-0.763 1.766-1.562 2.414-0.817 0.657-3.088 1.695-6.772 3.124l-31.407 11.883c-5.733 2.184-9.664 3.293-11.776 3.293-2.112 0.017-4.108-0.523-5.946-1.668-1.819-1.127-3.204-2.867-4.082-5.262-1.056-2.743-1.18-5.405-0.346-7.925 0.834-2.521 2.44-4.775 4.828-6.772 2.378-2.015 6.966-4.295 13.774-6.896l26.136-9.904c2.911-1.109 5.094-1.668 6.496-1.668 1.438 0 2.512 0.275 3.274 0.798 1.145 0.852 2.112 2.29 2.875 4.295l1.651-0.621-6.665-17.581-1.651 0.621 0.399 1.038c0.559 1.455 0.621 2.777 0.258 4.029-0.382 1.216-1.216 2.308-2.512 3.328-0.905 0.693-2.671 1.562-5.343 2.529l-24.361 9.248c-7.552 2.875-12.85 5.343-15.886 7.384-3.053 2.059-5.387 5.13-7.047 9.248-1.651 4.127-1.455 8.821 0.542 14.12 1.677 4.419 3.701 7.544 6.115 9.416 3.257 2.529 6.718 3.843 10.392 3.993 3.656 0.16 8.173-0.772 13.499-2.796l31.407-11.91c3.745-1.411 6.132-2.121 7.171-2.139 1.038 0 1.979 0.275 2.822 0.87 0.852 0.595 1.651 1.97 2.44 4.136l1.651-0.612-9.975-26.349zM841.196 236.43l0.728 1.286c4.144-1.42 7.295-2.13 9.442-2.184 2.13-0.036 4.153 0.471 6.026 1.491 1.020 0.559 2.184 1.979 3.47 4.18l2.059 3.611-45.935 26.437c-3.088 1.766-5.076 2.743-6.017 2.893-0.923 0.186-1.881 0.053-2.911-0.399-1.020-0.418-1.908-1.286-2.671-2.627l-0.905-1.544-1.527 0.852 14.209 24.698 1.518-0.905-0.905-1.562c-0.79-1.349-1.109-2.618-0.932-3.781 0.053-0.87 0.488-1.749 1.278-2.681 0.568-0.674 2.361-1.873 5.369-3.621l45.944-26.42 2.077 3.611c1.819 3.142 2.308 5.946 1.438 8.386-1.233 3.355-3.878 6.576-7.969 9.611l0.781 1.349 16.125-9.265-24.565-42.696-16.125 9.274zM824.344 191.906c-2.423-1.42-4.908-1.979-7.463-1.749-2.564 0.258-6.034 1.615-10.392 4.074l-0.923-1.145 15.85-12.646 28.461 35.649-1.384 1.109-1.127-1.42c-1.109-1.402-2.352-2.184-3.736-2.396-0.949-0.16-1.979 0.053-3.071 0.568-0.639 0.328-2.201 1.508-4.641 3.453l-35.339 28.239c-2.724 2.184-4.295 3.639-4.748 4.366-0.674 1.003-0.985 1.943-0.949 2.777 0.053 1.198 0.568 2.423 1.562 3.665l1.145 1.42-1.367 1.092-29.41-36.794 15.504-15.54 0.949 1.18c-3.914 4.81-6.079 9.354-6.478 13.614-0.364 4.233 1.020 8.324 4.189 12.3l2.041 2.583c0.968 1.233 1.873 1.926 2.743 2.13 0.87 0.177 1.695 0.142 2.494-0.204 0.817-0.311 2.707-1.668 5.653-4.020l15.086-12.034c-1.651-2.059-3.204-3.328-4.748-3.869-1.508-0.523-3.585-0.452-6.185 0.311-2.6 0.728-5.511 2.184-8.768 4.384l-0.905-1.145 28.105-22.453 0.905 1.145c-3.896 3.692-6.434 6.985-7.588 9.895-1.163 2.937-0.657 5.742 1.518 8.484l0.657 0.852 21.84-17.466-3.506-4.384c-2.6-3.248-4.597-5.262-5.972-6.026zM543.649 525.102v-264.631c0 0 77.697 66.16 102.918 90.29 25.221 24.103 29.384 54.712 28.346 75.664l-1.038 98.677h-130.225zM458.605 525.102v-264.631c0 0-77.688 66.16-102.936 90.29-25.221 24.103-29.428 54.712-28.372 75.664l1.127 98.677h130.182zM684.694 647.678c0 0 0.186-0.089-8.883-0.089h-27.005v-8.644h-24.095v8.644h-23.801v-8.644h-23.5v8.644h-23.748v-8.644h-23.873v8.644h-28.408l-0.364-16.010h28.771v-9.097h23.873v9.097h23.455v-9.097h23.801v9.097h24.076v-9.097h23.82v9.097h28.399l7.482 16.099zM541.378 665.453l3.053-5.298h6.168l-3.035-5.254 3.035-5.351h-6.168l-3.053-5.298-3.044 5.298h-6.061l3.009 5.351-3.009 5.254h6.061l3.044 5.298zM636.523 665.453l3.044-5.298h6.061l-2.973-5.254 2.973-5.351h-6.061l-3.044-5.298-3.018 5.298h-6.115l2.973 5.351-2.973 5.254h6.115l3.018 5.298zM589.229 619.11l3.044-5.245h6.132l-3.061-5.351 3.061-5.351-6.132 0.053-3.044-5.289-3.071 5.289-6.15-0.053 3.088 5.351-3.088 5.351h6.15l3.071 5.245zM458.942 560.388c8.786 0 21.29 1.508 21.653 3.585 0.258 2.237 2.13 9.46 7.348 12.469-2.325 1.668-4.144 1.802-7.091-0.887-1.624 1.615-3.639 0.107-5.040-1.198 3.274-1.109 2.999-2.858 1.58-4.003-1.508-1.092-3.124-1.295-5.529-0.471-1.89 0.728-4.108 1.979-3.692 3.798 0.311 1.295 1.286 2.858 3.833 1.864-2.094 7.117-9.478 4.579-9.478 4.579 0 0-1.89 5.040-3.585 5.040-1.642 0-3.532-5.040-3.532-5.040 0 0-7.393 2.547-9.513-4.579 2.547 0.985 3.532-0.568 3.833-1.864 0.418-1.819-1.508-3.071-3.417-3.798-2.396-0.834-4.313-0.621-5.786 0.471-1.438 1.145-1.713 2.893 1.562 4.003-1.402 1.295-3.399 2.805-5.112 1.198-2.839 2.689-4.695 2.547-7.002 0.887 5.2-3.009 7.002-10.232 7.295-12.469 0.364-2.077 12.957-3.585 21.672-3.585zM369.495 560.388c8.715 0 21.29 1.508 21.583 3.585 0.328 2.237 2.201 9.46 7.419 12.469-2.378 1.668-4.198 1.802-7.091-0.887-1.695 1.615-3.692 0.107-5.059-1.198 3.24-1.109 2.946-2.858 1.527-4.003-1.491-1.092-3.071-1.295-5.511-0.471-1.89 0.728-4.144 1.979-3.692 3.798 0.311 1.295 1.286 2.858 3.887 1.864-2.218 7.117-9.532 4.579-9.532 4.579 0 0-1.873 5.040-3.549 5.040-1.659 0-3.585-5.040-3.585-5.040 0 0-7.313 2.547-9.496-4.579 2.583 0.985 3.55-0.568 3.852-1.864 0.471-1.819-1.455-3.071-3.399-3.798-2.423-0.834-4.349-0.621-5.769 0.471-1.527 1.145-1.73 2.893 1.562 4.003-1.438 1.295-3.417 2.805-5.112 1.198-2.929 2.689-4.73 2.547-7.064 0.887 5.236-3.009 7.064-10.232 7.348-12.469 0.311-2.077 12.974-3.585 21.681-3.585zM413.62 533.311c8.679 0 21.263 1.455 21.574 3.639 0.346 2.077 2.184 9.513 7.348 12.371-2.272 1.615-4.108 1.802-7.002-0.932-1.695 1.713-3.674 0.16-5.076-1.038 3.274-1.18 2.999-3.018 1.473-4.1-1.42-1.038-2.946-1.331-5.475-0.435-1.873 0.639-4.144 1.881-3.692 3.86 0.293 1.145 1.314 2.858 3.798 1.713-2.077 7.171-9.425 4.605-9.425 4.605 0 0-1.873 5.059-3.549 5.059-1.73 0-3.603-5.059-3.603-5.059 0 0-7.313 2.564-9.46-4.605 2.583 1.145 3.585-0.568 3.833-1.713 0.418-1.979-1.438-3.221-3.363-3.86-2.459-0.905-4.366-0.604-5.822 0.435-1.42 1.092-1.73 2.929 1.491 4.1-1.348 1.198-3.328 2.76-5.006 1.038-2.946 2.743-4.765 2.547-7.082 0.932 5.254-2.858 7.082-10.295 7.384-12.371 0.275-2.184 12.912-3.639 21.653-3.639zM671.976 556.545l-85.87 26.029-85.888-26.029v6.975l85.888 26.162 85.87-26.162v-6.975zM671.976 542.878l-85.87 26.083-85.888-26.083v7.064l85.888 26.153 85.87-26.153v-7.064zM671.976 529.309l-85.87 26.091-85.888-26.091v7.020l85.888 26.055 85.87-26.055v-7.020zM328.77 594.67h169.539v76.082h-189.011c13.002-35.374 19.472-76.082 19.472-76.082zM441.29 620.859c-2.361 0-4.020 1.695-4.562 3.869h-21.423v-19.178c2.059-0.586 3.745-2.148 3.745-4.402 0-2.671-2.237-4.846-4.997-4.846-2.564 0-4.5 1.935-4.784 4.366-0.275-2.423-2.218-4.366-4.784-4.366-2.76 0-4.997 2.184-4.997 4.846 0 2.059 1.491 3.515 3.328 4.225v19.356h-20.172c-0.542-2.165-2.201-3.869-4.562-3.869-2.751 0-4.987 2.184-4.987 4.89 0 2.112 1.58 3.603 3.532 4.26v0.763c-1.952 0.657-3.532 2.148-3.532 4.295 0 2.671 2.237 4.854 4.987 4.854 2.032 0 3.434-1.348 4.215-3.035h20.527v18.938c-1.837 0.728-3.328 2.148-3.328 4.206 0 2.689 2.237 4.863 4.997 4.863 2.564 0 4.5-1.952 4.784-4.384 0.275 2.423 2.218 4.384 4.784 4.384 2.76 0 4.997-2.184 4.997-4.863 0-2.218-1.677-3.79-3.745-4.366v-18.778h21.778c0.781 1.677 2.184 3.035 4.215 3.035 2.751 0 4.987-2.184 4.987-4.854 0-2.459-1.943-4.295-4.366-4.624 2.405-0.435 4.349-2.272 4.349-4.695 0-2.707-2.237-4.89-4.987-4.89zM673.52 549.956c-0.278 8.010-0.365 10.818-0.44 14.864-0.657 35.479 4.354 62.398 22.566 104.983l1.554 3.633-196.6 1.956-0.052-5.271 184.372-1.835c3.669-0.037 4.389 0.068 4.389 0.068-17.298-41.284-22.15-68.414-21.499-103.632 0.076-4.085 0.164-6.91 0.443-14.95 0.558-16.084 0.676-24.3 0.292-35.067l5.268-0.188c0.39 10.925 0.271 19.237-0.292 35.438zM328.532 549.956c0.278 8.010 0.365 10.818 0.44 14.864 0.657 35.479-4.354 62.398-22.566 104.983l-1.554 3.633 196.6 1.956 0.052-5.271-184.372-1.835c-3.669-0.037-4.389 0.068-4.389 0.068 17.298-41.284 22.15-68.414 21.499-103.632-0.076-4.085-0.164-6.91-0.443-14.95-0.558-16.084-0.676-24.3-0.292-35.067l-5.268-0.188c-0.39 10.925-0.271 19.237 0.292 35.438zM328.522 527.791v-5.272h345.345v5.272h-345.345zM503.208 670.362h-5.272v-145.26h5.272v145.26zM328.53 596.8v-5.272h345.221v5.272h-345.221zM998.969 448c0 273.933-222.067 496-496 496s-496-222.067-496-496c0-273.933 222.067-496 496-496 273.933 0 496 222.067 496 496zM975.008 448c0 260.699-211.339 472.039-472.039 472.039-260.699 0-472.039-211.339-472.039-472.039 0-260.699 211.339-472.039 472.039-472.039 260.699 0 472.039 211.339 472.039 472.039z" horiz-adv-x="382" />
</font>
</defs>
</svg>
