<?xml version="1.0" encoding="UTF-8" standalone="no"?>
<svg width="1385px" height="696px" viewBox="0 0 1385 696" version="1.1" xmlns="http://www.w3.org/2000/svg" xmlns:xlink="http://www.w3.org/1999/xlink" xmlns:sketch="http://www.bohemiancoding.com/sketch/ns">
    <!-- Generator: Sketch 3.3.3 (12072) - http://www.bohemiancoding.com/sketch -->
    <title>grapefruit-logo-v2</title>
    <desc>Created with Sketch.</desc>
    <defs></defs>
    <g id="Page-1" stroke="none" stroke-width="1" fill="none" fill-rule="evenodd" sketch:type="MSPage">
        <g id="grapefruit-logo-v2" sketch:type="MSArtboardGroup">
            <path d="M564.84,309.12 L564.84,387.78 C564.84,395.580039 563.88001,402.629968 561.96,408.93 C560.03999,415.230031 557.07002,420.569978 553.05,424.95 C549.02998,429.330022 543.960031,432.719988 537.84,435.12 C531.719969,437.520012 524.460042,438.72 516.06,438.72 C508.01996,438.72 500.400036,437.70001 493.2,435.66 C485.999964,433.61999 479.340031,429.900027 473.22,424.5 L486.18,406.86 C490.500022,410.82002 494.999977,413.879989 499.68,416.04 C504.360023,418.200011 509.759969,419.28 515.88,419.28 C521.040026,419.28 525.389982,418.560007 528.93,417.12 C532.470018,415.679993 535.28999,413.700013 537.39,411.18 C539.490011,408.659987 540.989996,405.630018 541.89,402.09 C542.790005,398.549982 543.24,394.620022 543.24,390.3 L543.24,384 L542.88,384 C539.759984,388.200021 535.620026,391.349989 530.46,393.45 C525.299974,395.55001 520.020027,396.6 514.62,396.6 C508.139968,396.6 502.260026,395.430012 496.98,393.09 C491.699974,390.749988 487.170019,387.60002 483.39,383.64 C479.609981,379.67998 476.70001,375.000027 474.66,369.6 C472.61999,364.199973 471.6,358.440031 471.6,352.32 C471.6,345.959968 472.55999,340.020028 474.48,334.5 C476.40001,328.979972 479.219981,324.18002 482.94,320.1 C486.660019,316.01998 491.129974,312.810012 496.35,310.47 C501.570026,308.129988 507.539966,306.96 514.26,306.96 C520.380031,306.96 526.079974,308.159988 531.36,310.56 C536.640026,312.960012 540.839984,316.799974 543.96,322.08 L544.32,322.08 L544.32,309.12 L564.84,309.12 Z M518.76,326.4 C514.919981,326.4 511.440016,327.029994 508.32,328.29 C505.199984,329.550006 502.530011,331.289989 500.31,333.51 C498.089989,335.730011 496.350006,338.429984 495.09,341.61 C493.829994,344.790016 493.2,348.299981 493.2,352.14 C493.2,355.620017 493.829994,358.859985 495.09,361.86 C496.350006,364.860015 498.119989,367.499989 500.4,369.78 C502.680011,372.060011 505.379984,373.859993 508.5,375.18 C511.620016,376.500007 514.979982,377.16 518.58,377.16 C522.54002,377.16 526.109984,376.500007 529.29,375.18 C532.470016,373.859993 535.169989,372.090011 537.39,369.87 C539.610011,367.649989 541.319994,364.980016 542.52,361.86 C543.720006,358.739984 544.32,355.380018 544.32,351.78 C544.32,344.219962 542.040023,338.100023 537.48,333.42 C532.919977,328.739977 526.68004,326.4 518.76,326.4 L518.76,326.4 Z M589.32,309.12 L610.92,309.12 L610.92,322.8 L611.28,322.8 C613.680012,317.759975 617.099978,313.860014 621.54,311.1 C625.980022,308.339986 631.079971,306.96 636.84,306.96 C638.160007,306.96 639.449994,307.079999 640.71,307.32 C641.970006,307.560001 643.259993,307.859998 644.58,308.22 L644.58,329.1 C642.779991,328.619998 641.010009,328.230001 639.27,327.93 C637.529991,327.629998 635.820008,327.48 634.14,327.48 C629.099975,327.48 625.050015,328.409991 621.99,330.27 C618.929985,332.130009 616.590008,334.259988 614.97,336.66 C613.349992,339.060012 612.270003,341.459988 611.73,343.86 C611.189997,346.260012 610.92,348.059994 610.92,349.26 L610.92,395.52 L589.32,395.52 L589.32,309.12 Z M713.34,383.64 L712.8,383.64 C709.679984,388.560025 705.720024,392.129989 700.92,394.35 C696.119976,396.570011 690.840029,397.68 685.08,397.68 C681.11998,397.68 677.250019,397.140005 673.47,396.06 C669.689981,394.979995 666.330015,393.360011 663.39,391.2 C660.449985,389.039989 658.080009,386.340016 656.28,383.1 C654.479991,379.859984 653.58,376.080022 653.58,371.76 C653.58,367.079977 654.419992,363.090016 656.1,359.79 C657.780008,356.489983 660.029986,353.730011 662.85,351.51 C665.670014,349.289989 668.939981,347.520007 672.66,346.2 C676.380019,344.879993 680.24998,343.890003 684.27,343.23 C688.29002,342.569997 692.33998,342.150001 696.42,341.97 C700.50002,341.789999 704.339982,341.7 707.94,341.7 L713.34,341.7 L713.34,339.36 C713.34,333.959973 711.480019,329.910013 707.76,327.21 C704.039981,324.509986 699.300029,323.16 693.54,323.16 C688.979977,323.16 684.72002,323.969992 680.76,325.59 C676.79998,327.210008 673.380014,329.399986 670.5,332.16 L659.16,320.82 C663.960024,315.899975 669.569968,312.360011 675.99,310.2 C682.410032,308.039989 689.039966,306.96 695.88,306.96 C702.000031,306.96 707.159979,307.649993 711.36,309.03 C715.560021,310.410007 719.039986,312.179989 721.8,314.34 C724.560014,316.500011 726.689993,318.989986 728.19,321.81 C729.690008,324.630014 730.769997,327.479986 731.43,330.36 C732.090003,333.240014 732.479999,336.029986 732.6,338.73 C732.720001,341.430013 732.78,343.79999 732.78,345.84 L732.78,395.52 L713.34,395.52 L713.34,383.64 Z M712.08,356.82 L707.58,356.82 C704.579985,356.82 701.220019,356.939999 697.5,357.18 C693.779981,357.420001 690.270017,357.989996 686.97,358.89 C683.669984,359.790005 680.880011,361.109991 678.6,362.85 C676.319989,364.590009 675.18,367.019984 675.18,370.14 C675.18,372.18001 675.629996,373.889993 676.53,375.27 C677.430004,376.650007 678.599993,377.819995 680.04,378.78 C681.480007,379.740005 683.099991,380.429998 684.9,380.85 C686.700009,381.270002 688.499991,381.48 690.3,381.48 C697.740037,381.48 703.229982,379.710018 706.77,376.17 C710.310018,372.629982 712.08,367.800031 712.08,361.68 L712.08,356.82 Z M756,309.12 L776.52,309.12 L776.52,322.08 L776.88,322.08 C780.000016,316.799974 784.199974,312.960012 789.48,310.56 C794.760026,308.159988 800.459969,306.96 806.58,306.96 C813.180033,306.96 819.119974,308.129988 824.4,310.47 C829.680026,312.810012 834.179981,316.01998 837.9,320.1 C841.620019,324.18002 844.43999,328.979972 846.36,334.5 C848.28001,340.020028 849.24,345.959968 849.24,352.32 C849.24,358.680032 848.22001,364.619972 846.18,370.14 C844.13999,375.660028 841.290018,380.45998 837.63,384.54 C833.969982,388.62002 829.560026,391.829988 824.4,394.17 C819.239974,396.510012 813.600031,397.68 807.48,397.68 C803.39998,397.68 799.800016,397.260004 796.68,396.42 C793.559984,395.579996 790.800012,394.500007 788.4,393.18 C785.999988,391.859993 783.960008,390.450007 782.28,388.95 C780.599992,387.449993 779.220005,385.980007 778.14,384.54 L777.6,384.54 L777.6,436.56 L756,436.56 L756,309.12 Z M827.64,352.32 C827.64,348.959983 827.070006,345.720016 825.93,342.6 C824.789994,339.479984 823.110011,336.720012 820.89,334.32 C818.669989,331.919988 816.000016,330.000007 812.88,328.56 C809.759984,327.119993 806.22002,326.4 802.26,326.4 C798.29998,326.4 794.760016,327.119993 791.64,328.56 C788.519984,330.000007 785.850011,331.919988 783.63,334.32 C781.409989,336.720012 779.730006,339.479984 778.59,342.6 C777.449994,345.720016 776.88,348.959983 776.88,352.32 C776.88,355.680017 777.449994,358.919984 778.59,362.04 C779.730006,365.160016 781.409989,367.919988 783.63,370.32 C785.850011,372.720012 788.519984,374.639993 791.64,376.08 C794.760016,377.520007 798.29998,378.24 802.26,378.24 C806.22002,378.24 809.759984,377.520007 812.88,376.08 C816.000016,374.639993 818.669989,372.720012 820.89,370.32 C823.110011,367.919988 824.789994,365.160016 825.93,362.04 C827.070006,358.919984 827.64,355.680017 827.64,352.32 L827.64,352.32 Z M886.68,359.88 C887.400004,366.360032 889.919978,371.399982 894.24,375 C898.560022,378.600018 903.779969,380.4 909.9,380.4 C915.300027,380.4 919.829982,379.290011 923.49,377.07 C927.150018,374.849989 930.359986,372.060017 933.12,368.7 L948.6,380.4 C943.559975,386.640031 937.920031,391.079987 931.68,393.72 C925.439969,396.360013 918.900034,397.68 912.06,397.68 C905.579968,397.68 899.460029,396.600011 893.7,394.44 C887.939971,392.279989 882.960021,389.22002 878.76,385.26 C874.559979,381.29998 871.230012,376.530028 868.77,370.95 C866.309988,365.369972 865.08,359.160034 865.08,352.32 C865.08,345.479966 866.309988,339.270028 868.77,333.69 C871.230012,328.109972 874.559979,323.34002 878.76,319.38 C882.960021,315.41998 887.939971,312.360011 893.7,310.2 C899.460029,308.039989 905.579968,306.96 912.06,306.96 C918.06003,306.96 923.549975,308.009989 928.53,310.11 C933.510025,312.21001 937.769982,315.23998 941.31,319.2 C944.850018,323.16002 947.60999,328.049971 949.59,333.87 C951.57001,339.690029 952.56,346.379962 952.56,353.94 L952.56,359.88 L886.68,359.88 Z M930.96,343.68 C930.839999,337.319968 928.860019,332.310018 925.02,328.65 C921.179981,324.989982 915.840034,323.16 909,323.16 C902.519968,323.16 897.390019,325.019981 893.61,328.74 C889.829981,332.460019 887.520004,337.439969 886.68,343.68 L930.96,343.68 Z M980.46,327.48 L962.64,327.48 L962.64,309.12 L980.46,309.12 L980.46,296.88 C980.46,290.87997 980.879996,285.450024 981.72,280.59 C982.560004,275.729976 984.149988,271.560017 986.49,268.08 C988.830012,264.599983 992.099979,261.930009 996.3,260.07 C1000.50002,258.209991 1005.95997,257.28 1012.68,257.28 C1017.60002,257.28 1022.15998,257.699996 1026.36,258.54 L1024.92,276.9 C1023.35999,276.539998 1021.86001,276.240001 1020.42,276 C1018.97999,275.759999 1017.48001,275.64 1015.92,275.64 C1012.91998,275.64 1010.52001,276.119995 1008.72,277.08 C1006.91999,278.040005 1005.51001,279.329992 1004.49,280.95 C1003.46999,282.570008 1002.81,284.459989 1002.51,286.62 C1002.21,288.780011 1002.06,291.059988 1002.06,293.46 L1002.06,309.12 L1022.04,309.12 L1022.04,327.48 L1002.06,327.48 L1002.06,395.52 L980.46,395.52 L980.46,327.48 Z M1036.08,309.12 L1057.68,309.12 L1057.68,322.8 L1058.04,322.8 C1060.44001,317.759975 1063.85998,313.860014 1068.3,311.1 C1072.74002,308.339986 1077.83997,306.96 1083.6,306.96 C1084.92001,306.96 1086.20999,307.079999 1087.47,307.32 C1088.73001,307.560001 1090.01999,307.859998 1091.34,308.22 L1091.34,329.1 C1089.53999,328.619998 1087.77001,328.230001 1086.03,327.93 C1084.28999,327.629998 1082.58001,327.48 1080.9,327.48 C1075.85997,327.48 1071.81002,328.409991 1068.75,330.27 C1065.68998,332.130009 1063.35001,334.259988 1061.73,336.66 C1060.10999,339.060012 1059.03,341.459988 1058.49,343.86 C1057.95,346.260012 1057.68,348.059994 1057.68,349.26 L1057.68,395.52 L1036.08,395.52 L1036.08,309.12 Z M1184.94,395.52 L1164.42,395.52 L1164.42,381.66 L1164.06,381.66 C1162.01999,385.980022 1158.90002,389.729984 1154.7,392.91 C1150.49998,396.090016 1144.80004,397.68 1137.6,397.68 C1131.83997,397.68 1126.95002,396.750009 1122.93,394.89 C1118.90998,393.029991 1115.64001,390.510016 1113.12,387.33 C1110.59999,384.149984 1108.80001,380.52002 1107.72,376.44 C1106.63999,372.35998 1106.1,368.100022 1106.1,363.66 L1106.1,309.12 L1127.7,309.12 L1127.7,352.86 C1127.7,355.260012 1127.82,357.929985 1128.06,360.87 C1128.3,363.810015 1128.92999,366.569987 1129.95,369.15 C1130.97001,371.730013 1132.52999,373.889991 1134.63,375.63 C1136.73001,377.370009 1139.69998,378.24 1143.54,378.24 C1147.14002,378.24 1150.16999,377.640006 1152.63,376.44 C1155.09001,375.239994 1157.12999,373.62001 1158.75,371.58 C1160.37001,369.53999 1161.54,367.200013 1162.26,364.56 C1162.98,361.919987 1163.34,359.160014 1163.34,356.28 L1163.34,309.12 L1184.94,309.12 L1184.94,395.52 Z M1209.78,309.12 L1231.38,309.12 L1231.38,395.52 L1209.78,395.52 L1209.78,309.12 Z M1206.72,279.78 C1206.72,276.299983 1208.00999,273.270013 1210.59,270.69 C1213.17001,268.109987 1216.43998,266.82 1220.4,266.82 C1224.36002,266.82 1227.68999,268.049988 1230.39,270.51 C1233.09001,272.970012 1234.44,276.059981 1234.44,279.78 C1234.44,283.500019 1233.09001,286.589988 1230.39,289.05 C1227.68999,291.510012 1224.36002,292.74 1220.4,292.74 C1216.43998,292.74 1213.17001,291.450013 1210.59,288.87 C1208.00999,286.289987 1206.72,283.260017 1206.72,279.78 L1206.72,279.78 Z M1246.14,327.48 L1246.14,309.12 L1263.96,309.12 L1263.96,284.1 L1285.56,284.1 L1285.56,309.12 L1309.32,309.12 L1309.32,327.48 L1285.56,327.48 L1285.56,365.28 C1285.56,369.600022 1286.36999,373.019987 1287.99,375.54 C1289.61001,378.060013 1292.81998,379.32 1297.62,379.32 C1299.54001,379.32 1301.63999,379.110002 1303.92,378.69 C1306.20001,378.269998 1307.99999,377.580005 1309.32,376.62 L1309.32,394.8 C1307.03999,395.880005 1304.25002,396.629998 1300.95,397.05 C1297.64998,397.470002 1294.74001,397.68 1292.22,397.68 C1286.45997,397.68 1281.75002,397.050006 1278.09,395.79 C1274.42998,394.529994 1271.55001,392.610013 1269.45,390.03 C1267.34999,387.449987 1265.91,384.240019 1265.13,380.4 C1264.35,376.559981 1263.96,372.120025 1263.96,367.08 L1263.96,327.48 L1246.14,327.48 Z" id="grapefruit-outline" fill="#404040" sketch:type="MSShapeGroup"></path>
            <g id="lime" sketch:type="MSLayerGroup" transform="translate(105.000000, 224.000000)">
                <circle id="rind" stroke="#CA4443" stroke-width="26" sketch:type="MSShapeGroup" cx="125" cy="125" r="125"></circle>
                <path d="M128.803406,18.684891 C119.083313,18.889893 104.837311,17.21489 98.852295,27.044892 C96.023285,31.689881 99.226288,36.381882 100.503296,40.939881 C103.794312,52.685883 106.157288,64.45189 110.555298,75.939881 C113.740296,84.261887 115.113312,92.828889 119.167298,100.939881 C120.214295,103.034882 122.063294,107.73288 124.916291,107.73288 C130.744385,107.73288 137.267396,86.715882 139.416413,81.939881 C144.913392,69.719895 148.658387,56.688889 152.422394,43.939881 C153.870392,39.035889 157.059418,33.244889 154.906403,28.047883 C151.650391,20.189881 136.093384,18.531892 128.803406,18.684892 L128.803406,18.684891 Z" id="path1177" fill="#CA4443" sketch:type="MSShapeGroup"></path>
                <path d="M78.802307,36.956894 C65.996307,36.15889 49.675293,55.322891 44.088287,64.93988 C42.009308,68.520889 37.063293,74.472885 39.165313,78.75888 C41.606292,83.737884 49.262298,87.297881 53.803283,90.078887 C68.043304,98.798888 92.543304,113.29489 109.7583,112.876891 C117.849303,112.679885 112.335296,98.83789 110.630309,94.939879 C104.355285,80.592879 96.985289,66.310881 91.089293,51.939879 C88.707304,46.133879 86.735289,37.450881 78.802306,36.956893 L78.802307,36.956894 Z" id="path1459" fill="#CA4443" sketch:type="MSShapeGroup"></path>
                <path d="M173.104401,40.927887 C168.090393,43.615891 165.809418,51.254883 163.132416,55.93988 C155.933411,68.539886 148.352387,80.784881 142.299408,93.93988 C140.162384,98.584884 134.844391,106.343887 137.191406,111.790893 C139.277405,116.631881 147.349396,113.315887 150.803406,111.87088 C162.275421,107.069885 171.964417,99.628891 182.803406,93.730881 C191.185395,89.169892 202.952301,83.402893 206.655304,73.939881 C212.076294,60.085892 187.500397,33.210892 173.104401,40.927888 L173.104401,40.927887 Z" id="path1532" fill="#CA4443" sketch:type="MSShapeGroup"></path>
                <path d="M213.803314,96.226883 C210.450317,96.14888 207.137298,98.996887 203.803314,99.610886 C188.498413,102.429886 173.192413,109.392884 158.803406,115.550888 C155.044403,117.159882 144.251404,120.583893 144.424408,125.903885 C144.598389,131.238892 155.995392,133.865891 159.803406,135.529907 C176.319397,142.748901 194.529419,152.148895 212.878296,151.87088 C228.204315,151.639892 228.758301,117.218887 225.214295,106.93988 C223.815308,102.881881 218.490296,96.335891 213.803315,96.226883 L213.803314,96.226883 Z" id="path2530" fill="#CA4443" sketch:type="MSShapeGroup"></path>
                <path d="M32.818298,97.512894 C23.463287,100.231888 22.086303,112.919892 21.943298,120.939881 C21.627288,138.634888 22.582306,157.625886 45.803283,151.40088 C60.476287,147.467897 76.591308,141.665895 89.803283,134.235887 C93.567291,132.118883 101.739288,129.631883 102.832305,124.811891 C104.346313,118.141893 91.982299,115.74489 87.803283,113.670885 C78.313293,108.959886 68.592284,106.659883 58.803283,102.952883 C51.257293,100.095888 41.201293,95.077883 32.818298,97.512896 L32.818298,97.512894 Z" id="path2596" fill="#CA4443" sketch:type="MSShapeGroup"></path>
                <path d="M105.799286,134.790894 C100.155304,135.503907 94.813294,139.872895 89.799286,142.260895 C75.102295,149.260895 50.564301,158.773895 42.491303,173.979889 C34.56131,188.914887 56.856293,212.032898 72.713288,210.415894 C79.073304,209.766877 83.601288,199.855896 86.072297,194.939881 C93.682313,179.797883 102.2883,165.203889 109.708314,149.939881 C112.011293,145.202881 115.102296,133.616883 105.799287,134.790894 L105.799286,134.790894 Z" id="path3408" fill="#CA4443" sketch:type="MSShapeGroup"></path>
                <path d="M138.560394,138.968872 C133.168396,143.467895 144.293396,164.955902 146.694397,169.93988 C151.819397,180.576873 156.322418,191.358886 161.523407,201.93988 C163.623413,206.21289 165.217407,212.13388 170.842407,212.751892 C178.099396,213.547882 185.3974,205.828888 190.518402,201.572876 C196.816315,196.339874 213.882294,179.250885 210.060303,170.043884 C205.851319,159.902893 184.973419,153.721893 175.803406,149.275879 C166.8844,144.950897 158.493408,141.229889 148.803406,139.274902 C145.958405,138.700866 141.154389,136.803894 138.560395,138.968872 L138.560394,138.968872 Z" id="path3493" fill="#CA4443" sketch:type="MSShapeGroup"></path>
                <path d="M121.861298,147.075897 C113.481293,150.669891 109.775299,171.216888 107.080292,178.93988 C103.293305,189.792877 91.001313,208.941894 94.391297,220.846893 C95.841309,225.936889 102.309296,227.438873 106.803284,228.558899 C118.547303,231.485901 136.311402,233.517883 147.698395,228.096893 C154.876404,224.678894 153.400421,217.026886 151.737396,210.935882 C147.432403,195.1669 141.673401,177.869872 134.978393,162.93988 C132.886413,158.274902 129.781402,143.678894 121.861297,147.075897 L121.861298,147.075897 Z" id="path3689" fill="#CA4443" sketch:type="MSShapeGroup"></path>
            </g>
        </g>
    </g>
</svg>