<?xml version="1.0" encoding="UTF-8" standalone="no"?>
<svg width="1243px" height="315px" viewBox="0 0 1243 315" version="1.1" xmlns="http://www.w3.org/2000/svg" xmlns:xlink="http://www.w3.org/1999/xlink" xmlns:sketch="http://www.bohemiancoding.com/sketch/ns">
    <!-- Generator: Sketch 3.2.2 (9983) - http://www.bohemiancoding.com/sketch -->
    <title>grapefruit-logo-v2</title>
    <desc>Created with Sketch.</desc>
    <defs></defs>
    <g id="Page-1" stroke="none" stroke-width="1" fill="none" fill-rule="evenodd" sketch:type="MSPage">
        <g id="lime" sketch:type="MSLayerGroup" transform="translate(17.000000, 17.000000)">
            <path d="M12.77533,90.93988 C9.658341,97.738891 5.231339,104.617889 3.487336,111.93988 C-2.68167,137.838882 0.377351,163.000885 8.636338,187.93988 C12.80835,200.538879 17.282288,213.233886 25.401307,223.93988 C44.062287,248.546875 67.17331,263.923889 95.803285,274.157898 C114.553285,280.859894 134.93329,283.093872 154.803407,280.6539 C168.241395,279.002899 183.214418,277.645874 195.803407,272.485901 C245.377321,252.167877 277.849305,204.648895 281.713319,151.93988 C287.507295,72.897888 206.726411,-9.129609 126.803285,1.364288 C74.675293,8.208892 34.093293,44.43489 12.77533,90.93988 Z" id="path643" stroke="#CA4443" stroke-width="4" fill="#CA4443" sketch:type="MSShapeGroup"></path>
            <path d="M130.713287,6.429077 C109.9393,9.354889 88.16629,16.431877 70.803283,28.672882 C41.5363,49.305893 19.335296,76.871887 10.360336,111.93988 C-2.77266,163.25888 20.978302,222.835876 64.807312,251.87088 C92.506287,270.219879 129.0383,277.728882 161.803406,273.75589 C235.474304,264.820892 283.680298,193.43988 273.49231,121.93988 C264.80832,60.991882 194.401398,-2.539002 130.713288,6.429077 L130.713287,6.429077 Z" id="path705" fill="#CA4443" sketch:type="MSShapeGroup"></path>
            <path d="M138.803284,29.367889 C117.649292,31.89389 99.241303,34.57788 80.803284,46.583892 C35.796295,75.891891 15.165299,135.790893 36.677307,185.769897 C47.031311,209.82489 65.749298,229.366882 88.088287,242.819885 C110.777313,256.483886 139.479309,256.656891 164.803405,253.772888 C181.185394,251.907898 198.57141,240.487884 210.93341,230.211883 C234.445312,210.6669 250.588317,184.676879 253.519317,153.93988 C259.377319,92.511886 204.917419,21.473877 138.803283,29.367889 L138.803284,29.367889 Z" id="path1028" fill="#FFFFFF" sketch:type="MSShapeGroup"></path>
            <path d="M146.803406,35.684891 C137.083313,35.889893 122.837311,34.21489 116.852295,44.044892 C114.023285,48.689881 117.226288,53.381882 118.503296,57.939881 C121.794312,69.685883 124.157288,81.45189 128.555298,92.939881 C131.740296,101.261887 133.113312,109.828889 137.167298,117.939881 C138.214295,120.034882 140.063294,124.73288 142.916291,124.73288 C148.744385,124.73288 155.267396,103.715882 157.416413,98.939881 C162.913392,86.719895 166.658387,73.688889 170.422394,60.939881 C171.870392,56.035889 175.059418,50.244889 172.906403,45.047883 C169.650391,37.189881 154.093384,35.531892 146.803406,35.684892 L146.803406,35.684891 Z" id="path1177" fill="#CA4443" sketch:type="MSShapeGroup"></path>
            <path d="M96.802307,53.956894 C83.996307,53.15889 67.675293,72.322891 62.088287,81.93988 C60.009308,85.520889 55.063293,91.472885 57.165313,95.75888 C59.606292,100.737884 67.262298,104.297881 71.803283,107.078887 C86.043304,115.798888 110.543304,130.29489 127.7583,129.876891 C135.849303,129.679885 130.335296,115.83789 128.630309,111.939879 C122.355285,97.592879 114.985289,83.310881 109.089293,68.939879 C106.707304,63.133879 104.735289,54.450881 96.802306,53.956893 L96.802307,53.956894 Z" id="path1459" fill="#CA4443" sketch:type="MSShapeGroup"></path>
            <path d="M191.104401,57.927887 C186.090393,60.615891 183.809418,68.254883 181.132416,72.93988 C173.933411,85.539886 166.352387,97.784881 160.299408,110.93988 C158.162384,115.584884 152.844391,123.343887 155.191406,128.790893 C157.277405,133.631881 165.349396,130.315887 168.803406,128.87088 C180.275421,124.069885 189.964417,116.628891 200.803406,110.730881 C209.185395,106.169892 220.952301,100.402893 224.655304,90.939881 C230.076294,77.085892 205.500397,50.210892 191.104401,57.927888 L191.104401,57.927887 Z" id="path1532" fill="#CA4443" sketch:type="MSShapeGroup"></path>
            <path d="M231.803314,113.226883 C228.450317,113.14888 225.137298,115.996887 221.803314,116.610886 C206.498413,119.429886 191.192413,126.392884 176.803406,132.550888 C173.044403,134.159882 162.251404,137.583893 162.424408,142.903885 C162.598389,148.238892 173.995392,150.865891 177.803406,152.529907 C194.319397,159.748901 212.529419,169.148895 230.878296,168.87088 C246.204315,168.639892 246.758301,134.218887 243.214295,123.93988 C241.815308,119.881881 236.490296,113.335891 231.803315,113.226883 L231.803314,113.226883 Z" id="path2530" fill="#CA4443" sketch:type="MSShapeGroup"></path>
            <path d="M50.818298,114.512894 C41.463287,117.231888 40.086303,129.919892 39.943298,137.939881 C39.627288,155.634888 40.582306,174.625886 63.803283,168.40088 C78.476287,164.467897 94.591308,158.665895 107.803283,151.235887 C111.567291,149.118883 119.739288,146.631883 120.832305,141.811891 C122.346313,135.141893 109.982299,132.74489 105.803283,130.670885 C96.313293,125.959886 86.592284,123.659883 76.803283,119.952883 C69.257293,117.095888 59.201293,112.077883 50.818298,114.512896 L50.818298,114.512894 Z" id="path2596" fill="#CA4443" sketch:type="MSShapeGroup"></path>
            <path d="M123.799286,151.790894 C118.155304,152.503907 112.813294,156.872895 107.799286,159.260895 C93.102295,166.260895 68.564301,175.773895 60.491303,190.979889 C52.56131,205.914887 74.856293,229.032898 90.713288,227.415894 C97.073304,226.766877 101.601288,216.855896 104.072297,211.939881 C111.682313,196.797883 120.2883,182.203889 127.708314,166.939881 C130.011293,162.202881 133.102296,150.616883 123.799287,151.790894 L123.799286,151.790894 Z" id="path3408" fill="#CA4443" sketch:type="MSShapeGroup"></path>
            <path d="M156.560394,155.968872 C151.168396,160.467895 162.293396,181.955902 164.694397,186.93988 C169.819397,197.576873 174.322418,208.358886 179.523407,218.93988 C181.623413,223.21289 183.217407,229.13388 188.842407,229.751892 C196.099396,230.547882 203.3974,222.828888 208.518402,218.572876 C214.816315,213.339874 231.882294,196.250885 228.060303,187.043884 C223.851319,176.902893 202.973419,170.721893 193.803406,166.275879 C184.8844,161.950897 176.493408,158.229889 166.803406,156.274902 C163.958405,155.700866 159.154389,153.803894 156.560395,155.968872 L156.560394,155.968872 Z" id="path3493" fill="#CA4443" sketch:type="MSShapeGroup"></path>
            <path d="M139.861298,162.075897 C131.481293,165.669891 127.775299,186.216888 125.080292,193.93988 C121.293305,204.792877 109.001313,223.941894 112.391297,235.846893 C113.841309,240.936889 120.309296,242.438873 124.803284,243.558899 C136.547303,246.485901 154.311402,248.517883 165.698395,243.096893 C172.876404,239.678894 171.400421,232.026886 169.737396,225.935882 C165.432403,210.1669 159.673401,192.869872 152.978393,177.93988 C150.886413,173.274902 147.781402,158.678894 139.861297,162.075897 L139.861298,162.075897 Z" id="path3689" fill="#CA4443" sketch:type="MSShapeGroup"></path>
        </g>
        <path d="M493.84,118.62 L493.84,197.28 C493.84,205.080039 492.88001,212.129968 490.96,218.43 C489.03999,224.730032 486.07002,230.069978 482.05,234.45 C478.02998,238.830022 472.960031,242.219988 466.84,244.62 C460.719969,247.020012 453.460042,248.22 445.06,248.22 C437.01996,248.22 429.400036,247.20001 422.2,245.16 C414.999964,243.11999 408.340031,239.400027 402.22,234 L415.18,216.36 C419.500022,220.32002 423.999977,223.379989 428.68,225.54 C433.360023,227.700011 438.759969,228.78 444.88,228.78 C450.040026,228.78 454.389982,228.060007 457.93,226.62 C461.470018,225.179993 464.28999,223.200013 466.39,220.68 C468.490011,218.159987 469.989996,215.130018 470.89,211.59 C471.790005,208.049982 472.24,204.120022 472.24,199.8 L472.24,193.5 L471.88,193.5 C468.759984,197.700021 464.620026,200.84999 459.46,202.95 C454.299974,205.050011 449.020027,206.1 443.62,206.1 C437.139968,206.1 431.260026,204.930012 425.98,202.59 C420.699974,200.249988 416.170019,197.10002 412.39,193.14 C408.609981,189.17998 405.70001,184.500027 403.66,179.1 C401.61999,173.699973 400.6,167.940031 400.6,161.82 C400.6,155.459968 401.55999,149.520028 403.48,144 C405.40001,138.479972 408.219981,133.68002 411.94,129.6 C415.660019,125.51998 420.129974,122.310012 425.35,119.97 C430.570026,117.629988 436.539966,116.46 443.26,116.46 C449.380031,116.46 455.079974,117.659988 460.36,120.06 C465.640026,122.460012 469.839984,126.299974 472.96,131.58 L473.32,131.58 L473.32,118.62 L493.84,118.62 Z M447.76,135.9 C443.919981,135.9 440.440016,136.529994 437.32,137.79 C434.199984,139.050006 431.530011,140.789989 429.31,143.01 C427.089989,145.230011 425.350006,147.929984 424.09,151.11 C422.829994,154.290016 422.2,157.799981 422.2,161.64 C422.2,165.120017 422.829994,168.359985 424.09,171.36 C425.350006,174.360015 427.119989,176.999989 429.4,179.28 C431.680011,181.560011 434.379984,183.359993 437.5,184.68 C440.620016,186.000007 443.979982,186.66 447.58,186.66 C451.54002,186.66 455.109984,186.000007 458.29,184.68 C461.470016,183.359993 464.169989,181.590011 466.39,179.37 C468.610011,177.149989 470.319994,174.480016 471.52,171.36 C472.720006,168.239984 473.32,164.880018 473.32,161.28 C473.32,153.719962 471.040023,147.600023 466.48,142.92 C461.919977,138.239977 455.68004,135.9 447.76,135.9 L447.76,135.9 Z M518.32,118.62 L539.92,118.62 L539.92,132.3 L540.28,132.3 C542.680012,127.259975 546.099978,123.360014 550.54,120.6 C554.980022,117.839986 560.079971,116.46 565.84,116.46 C567.160007,116.46 568.449994,116.579999 569.71,116.82 C570.970006,117.060001 572.259993,117.359998 573.58,117.72 L573.58,138.6 C571.779991,138.119998 570.010009,137.730002 568.27,137.43 C566.529991,137.129999 564.820008,136.98 563.14,136.98 C558.099975,136.98 554.050015,137.909991 550.99,139.77 C547.929985,141.630009 545.590008,143.759988 543.97,146.16 C542.349992,148.560012 541.270003,150.959988 540.73,153.36 C540.189997,155.760012 539.92,157.559994 539.92,158.76 L539.92,205.02 L518.32,205.02 L518.32,118.62 Z M642.34,193.14 L641.8,193.14 C638.679984,198.060025 634.720024,201.629989 629.92,203.85 C625.119976,206.070011 619.840029,207.18 614.08,207.18 C610.11998,207.18 606.250019,206.640005 602.47,205.56 C598.689981,204.479995 595.330015,202.860011 592.39,200.7 C589.449985,198.539989 587.080009,195.840016 585.28,192.6 C583.479991,189.359984 582.58,185.580022 582.58,181.26 C582.58,176.579977 583.419992,172.590017 585.1,169.29 C586.780008,165.989984 589.029986,163.230011 591.85,161.01 C594.670014,158.789989 597.939981,157.020007 601.66,155.7 C605.380019,154.379993 609.24998,153.390003 613.27,152.73 C617.29002,152.069997 621.33998,151.650001 625.42,151.47 C629.50002,151.289999 633.339982,151.2 636.94,151.2 L642.34,151.2 L642.34,148.86 C642.34,143.459973 640.480019,139.410014 636.76,136.71 C633.039981,134.009986 628.300029,132.66 622.54,132.66 C617.979977,132.66 613.72002,133.469992 609.76,135.09 C605.79998,136.710008 602.380014,138.899986 599.5,141.66 L588.16,130.32 C592.960024,125.399975 598.569968,121.860011 604.99,119.7 C611.410032,117.539989 618.039966,116.46 624.88,116.46 C631.000031,116.46 636.159979,117.149993 640.36,118.53 C644.560021,119.910007 648.039986,121.679989 650.8,123.84 C653.560014,126.000011 655.689993,128.489986 657.19,131.31 C658.690008,134.130014 659.769997,136.979986 660.43,139.86 C661.090003,142.740014 661.479999,145.529987 661.6,148.23 C661.720001,150.930014 661.78,153.29999 661.78,155.34 L661.78,205.02 L642.34,205.02 L642.34,193.14 Z M641.08,166.32 L636.58,166.32 C633.579985,166.32 630.220019,166.439999 626.5,166.68 C622.779981,166.920001 619.270017,167.489996 615.97,168.39 C612.669984,169.290005 609.880011,170.609991 607.6,172.35 C605.319989,174.090009 604.18,176.519984 604.18,179.64 C604.18,181.68001 604.629996,183.389993 605.53,184.77 C606.430004,186.150007 607.599993,187.319995 609.04,188.28 C610.480007,189.240005 612.099991,189.929998 613.9,190.35 C615.700009,190.770002 617.499991,190.98 619.3,190.98 C626.740037,190.98 632.229982,189.210018 635.77,185.67 C639.310018,182.129982 641.08,177.300031 641.08,171.18 L641.08,166.32 Z M685,118.62 L705.52,118.62 L705.52,131.58 L705.88,131.58 C709.000016,126.299974 713.199974,122.460012 718.48,120.06 C723.760026,117.659988 729.459969,116.46 735.58,116.46 C742.180033,116.46 748.119974,117.629988 753.4,119.97 C758.680026,122.310012 763.179981,125.51998 766.9,129.6 C770.620019,133.68002 773.43999,138.479972 775.36,144 C777.28001,149.520028 778.24,155.459968 778.24,161.82 C778.24,168.180032 777.22001,174.119972 775.18,179.64 C773.13999,185.160028 770.290018,189.95998 766.63,194.04 C762.969982,198.12002 758.560026,201.329988 753.4,203.67 C748.239974,206.010012 742.600031,207.18 736.48,207.18 C732.39998,207.18 728.800016,206.760004 725.68,205.92 C722.559984,205.079996 719.800012,204.000007 717.4,202.68 C714.999988,201.359993 712.960008,199.950007 711.28,198.45 C709.599992,196.949993 708.220005,195.480007 707.14,194.04 L706.6,194.04 L706.6,246.06 L685,246.06 L685,118.62 Z M756.64,161.82 C756.64,158.459983 756.070006,155.220016 754.93,152.1 C753.789994,148.979984 752.110011,146.220012 749.89,143.82 C747.669989,141.419988 745.000016,139.500007 741.88,138.06 C738.759984,136.619993 735.22002,135.9 731.26,135.9 C727.29998,135.9 723.760016,136.619993 720.64,138.06 C717.519984,139.500007 714.850011,141.419988 712.63,143.82 C710.409989,146.220012 708.730006,148.979984 707.59,152.1 C706.449994,155.220016 705.88,158.459983 705.88,161.82 C705.88,165.180017 706.449994,168.419984 707.59,171.54 C708.730006,174.660016 710.409989,177.419988 712.63,179.82 C714.850011,182.220012 717.519984,184.139993 720.64,185.58 C723.760016,187.020007 727.29998,187.74 731.26,187.74 C735.22002,187.74 738.759984,187.020007 741.88,185.58 C745.000016,184.139993 747.669989,182.220012 749.89,179.82 C752.110011,177.419988 753.789994,174.660016 754.93,171.54 C756.070006,168.419984 756.64,165.180017 756.64,161.82 L756.64,161.82 Z M815.68,169.38 C816.400004,175.860032 818.919978,180.899982 823.24,184.5 C827.560022,188.100018 832.779969,189.9 838.9,189.9 C844.300027,189.9 848.829982,188.790011 852.49,186.57 C856.150018,184.349989 859.359986,181.560017 862.12,178.2 L877.6,189.9 C872.559975,196.140031 866.920031,200.579987 860.68,203.22 C854.439969,205.860013 847.900034,207.18 841.06,207.18 C834.579968,207.18 828.460029,206.100011 822.7,203.94 C816.939971,201.779989 811.960021,198.72002 807.76,194.76 C803.559979,190.79998 800.230012,186.030028 797.77,180.45 C795.309988,174.869972 794.08,168.660034 794.08,161.82 C794.08,154.979966 795.309988,148.770028 797.77,143.19 C800.230012,137.609972 803.559979,132.84002 807.76,128.88 C811.960021,124.91998 816.939971,121.860011 822.7,119.7 C828.460029,117.539989 834.579968,116.46 841.06,116.46 C847.06003,116.46 852.549975,117.50999 857.53,119.61 C862.510025,121.710011 866.769982,124.73998 870.31,128.7 C873.850018,132.66002 876.60999,137.549971 878.59,143.37 C880.57001,149.190029 881.56,155.879962 881.56,163.44 L881.56,169.38 L815.68,169.38 Z M859.96,153.18 C859.839999,146.819968 857.860019,141.810018 854.02,138.15 C850.179981,134.489982 844.840034,132.66 838,132.66 C831.519968,132.66 826.390019,134.519981 822.61,138.24 C818.829981,141.960019 816.520004,146.939969 815.68,153.18 L859.96,153.18 Z M909.46,136.98 L891.64,136.98 L891.64,118.62 L909.46,118.62 L909.46,106.38 C909.46,100.37997 909.879996,94.9500243 910.72,90.09 C911.560004,85.2299757 913.149988,81.0600174 915.49,77.58 C917.830012,74.0999826 921.099979,71.4300093 925.3,69.57 C929.500021,67.7099907 934.959966,66.78 941.68,66.78 C946.600025,66.78 951.159979,67.1999958 955.36,68.04 L953.92,86.4 C952.359992,86.0399982 950.860007,85.7400012 949.42,85.5 C947.979993,85.2599988 946.480008,85.14 944.92,85.14 C941.919985,85.14 939.520009,85.6199952 937.72,86.58 C935.919991,87.5400048 934.510005,88.8299919 933.49,90.45 C932.469995,92.0700081 931.810001,93.9599892 931.51,96.12 C931.209998,98.2800108 931.06,100.559988 931.06,102.96 L931.06,118.62 L951.04,118.62 L951.04,136.98 L931.06,136.98 L931.06,205.02 L909.46,205.02 L909.46,136.98 Z M965.08,118.62 L986.68,118.62 L986.68,132.3 L987.04,132.3 C989.440012,127.259975 992.859978,123.360014 997.3,120.6 C1001.74002,117.839986 1006.83997,116.46 1012.6,116.46 C1013.92001,116.46 1015.20999,116.579999 1016.47,116.82 C1017.73001,117.060001 1019.01999,117.359998 1020.34,117.72 L1020.34,138.6 C1018.53999,138.119998 1016.77001,137.730002 1015.03,137.43 C1013.28999,137.129999 1011.58001,136.98 1009.9,136.98 C1004.85997,136.98 1000.81002,137.909991 997.75,139.77 C994.689985,141.630009 992.350008,143.759988 990.73,146.16 C989.109992,148.560012 988.030003,150.959988 987.49,153.36 C986.949997,155.760012 986.68,157.559994 986.68,158.76 L986.68,205.02 L965.08,205.02 L965.08,118.62 Z M1113.94,205.02 L1093.42,205.02 L1093.42,191.16 L1093.06,191.16 C1091.01999,195.480022 1087.90002,199.229984 1083.7,202.41 C1079.49998,205.590016 1073.80004,207.18 1066.6,207.18 C1060.83997,207.18 1055.95002,206.250009 1051.93,204.39 C1047.90998,202.529991 1044.64001,200.010016 1042.12,196.83 C1039.59999,193.649984 1037.80001,190.02002 1036.72,185.94 C1035.63999,181.85998 1035.1,177.600022 1035.1,173.16 L1035.1,118.62 L1056.7,118.62 L1056.7,162.36 C1056.7,164.760012 1056.82,167.429985 1057.06,170.37 C1057.3,173.310015 1057.92999,176.069987 1058.95,178.65 C1059.97001,181.230013 1061.52999,183.389991 1063.63,185.13 C1065.73001,186.870009 1068.69998,187.74 1072.54,187.74 C1076.14002,187.74 1079.16999,187.140006 1081.63,185.94 C1084.09001,184.739994 1086.12999,183.12001 1087.75,181.08 C1089.37001,179.03999 1090.54,176.700013 1091.26,174.06 C1091.98,171.419987 1092.34,168.660014 1092.34,165.78 L1092.34,118.62 L1113.94,118.62 L1113.94,205.02 Z M1138.78,118.62 L1160.38,118.62 L1160.38,205.02 L1138.78,205.02 L1138.78,118.62 Z M1135.72,89.28 C1135.72,85.7999826 1137.00999,82.7700129 1139.59,80.19 C1142.17001,77.6099871 1145.43998,76.32 1149.4,76.32 C1153.36002,76.32 1156.68999,77.5499877 1159.39,80.01 C1162.09001,82.4700123 1163.44,85.5599814 1163.44,89.28 C1163.44,93.0000186 1162.09001,96.0899877 1159.39,98.55 C1156.68999,101.010012 1153.36002,102.24 1149.4,102.24 C1145.43998,102.24 1142.17001,100.950013 1139.59,98.37 C1137.00999,95.7899871 1135.72,92.7600174 1135.72,89.28 L1135.72,89.28 Z M1175.14,136.98 L1175.14,118.62 L1192.96,118.62 L1192.96,93.6 L1214.56,93.6 L1214.56,118.62 L1238.32,118.62 L1238.32,136.98 L1214.56,136.98 L1214.56,174.78 C1214.56,179.100022 1215.36999,182.519987 1216.99,185.04 C1218.61001,187.560013 1221.81998,188.82 1226.62,188.82 C1228.54001,188.82 1230.63999,188.610002 1232.92,188.19 C1235.20001,187.769998 1236.99999,187.080005 1238.32,186.12 L1238.32,204.3 C1236.03999,205.380005 1233.25002,206.129998 1229.95,206.55 C1226.64998,206.970002 1223.74001,207.18 1221.22,207.18 C1215.45997,207.18 1210.75002,206.550006 1207.09,205.29 C1203.42998,204.029994 1200.55001,202.110013 1198.45,199.53 C1196.34999,196.949987 1194.91,193.740019 1194.13,189.9 C1193.35,186.059981 1192.96,181.620025 1192.96,176.58 L1192.96,136.98 L1175.14,136.98 Z" id="grapefruit-3" fill="#404040" sketch:type="MSShapeGroup"></path>
    </g>
</svg>